<svg width="32" height="32" viewBox="0 0 32 32" fill="none" xmlns="http://www.w3.org/2000/svg">
<circle cx="16" cy="15.9995" r="15.5" stroke="#D8D8D8"/>
<path fill-rule="evenodd" clip-rule="evenodd" d="M16.0007 7.99951C13.8281 7.99951 13.5554 8.00901 12.702 8.04785C11.8504 8.08685 11.269 8.22168 10.7604 8.41952C10.2342 8.62385 9.78785 8.89719 9.34318 9.34203C8.89818 9.7867 8.62484 10.233 8.41984 10.759C8.2215 11.2679 8.0865 11.8494 8.04817 12.7007C8.01 13.5541 8 13.8269 8 15.9996C8 18.1723 8.00967 18.4441 8.04833 19.2975C8.0875 20.1491 8.22234 20.7305 8.42 21.2392C8.62451 21.7653 8.89784 22.2117 9.34268 22.6563C9.78719 23.1013 10.2335 23.3753 10.7594 23.5797C11.2684 23.7775 11.8499 23.9123 12.7014 23.9513C13.5547 23.9902 13.8272 23.9997 15.9998 23.9997C18.1726 23.9997 18.4444 23.9902 19.2978 23.9513C20.1495 23.9123 20.7315 23.7775 21.2405 23.5797C21.7665 23.3753 22.2121 23.1013 22.6567 22.6563C23.1017 22.2117 23.375 21.7653 23.58 21.2393C23.7767 20.7305 23.9117 20.149 23.9517 19.2976C23.99 18.4443 24 18.1723 24 15.9996C24 13.8269 23.99 13.5542 23.9517 12.7009C23.9117 11.8492 23.7767 11.2679 23.58 10.7592C23.375 10.233 23.1017 9.7867 22.6567 9.34203C22.2116 8.89702 21.7666 8.62368 21.24 8.41952C20.73 8.22168 20.1483 8.08685 19.2966 8.04785C18.4433 8.00901 18.1716 7.99951 15.9983 7.99951H16.0007ZM15.2831 9.44101C15.4961 9.44068 15.7338 9.44101 16.0008 9.44101C18.1368 9.44101 18.39 9.44868 19.2335 9.48701C20.0135 9.52268 20.4368 9.65302 20.7189 9.76252C21.0922 9.90752 21.3584 10.0809 21.6382 10.3609C21.9182 10.6409 22.0915 10.9075 22.2369 11.2809C22.3464 11.5625 22.4769 11.9859 22.5124 12.7659C22.5507 13.6092 22.559 13.8626 22.559 15.9976C22.559 18.1326 22.5507 18.3859 22.5124 19.2293C22.4767 20.0093 22.3464 20.4326 22.2369 20.7143C22.0919 21.0876 21.9182 21.3535 21.6382 21.6333C21.3582 21.9133 21.0924 22.0866 20.7189 22.2316C20.4372 22.3417 20.0135 22.4717 19.2335 22.5073C18.3902 22.5457 18.1368 22.554 16.0008 22.554C13.8646 22.554 13.6114 22.5457 12.7681 22.5073C11.9881 22.4713 11.5648 22.341 11.2826 22.2315C10.9092 22.0865 10.6426 21.9131 10.3626 21.6331C10.0826 21.3531 9.90924 21.0871 9.7639 20.7136C9.6544 20.432 9.5239 20.0086 9.4884 19.2286C9.45006 18.3853 9.4424 18.1319 9.4424 15.9956C9.4424 13.8592 9.45006 13.6072 9.4884 12.7639C9.52407 11.9839 9.6544 11.5605 9.7639 11.2785C9.9089 10.9052 10.0826 10.6385 10.3626 10.3585C10.6426 10.0785 10.9092 9.90519 11.2826 9.75985C11.5646 9.64985 11.9881 9.51985 12.7681 9.48401C13.5061 9.45068 13.7921 9.44068 15.2831 9.43901V9.44101ZM20.2712 10.7694C19.7412 10.7694 19.3112 11.1989 19.3112 11.729C19.3112 12.259 19.7412 12.689 20.2712 12.689C20.8012 12.689 21.2312 12.259 21.2312 11.729C21.2312 11.199 20.8012 10.769 20.2712 10.769V10.7694ZM16.0007 11.8911C13.7319 11.8911 11.8923 13.7306 11.8923 15.9995C11.8923 18.2683 13.7319 20.107 16.0007 20.107C18.2696 20.107 20.1084 18.2683 20.1084 15.9995C20.1084 13.7306 18.2694 11.8911 16.0005 11.8911H16.0007ZM16.0008 13.3327C17.4735 13.3327 18.6675 14.5265 18.6675 15.9994C18.6675 17.472 17.4735 18.6661 16.0008 18.6661C14.5279 18.6661 13.3341 17.472 13.3341 15.9994C13.3341 14.5265 14.5279 13.3327 16.0008 13.3327Z" fill="#A7A7A7"/>
</svg>
