<svg width="688" height="66" viewBox="0 0 688 66" fill="none" xmlns="http://www.w3.org/2000/svg">
<path d="M2.697 23V0.865999H8.587L13.175 10.507H13.919L18.445 0.865999H24.366V23H20.832V5.299H20.088L15.407 15.002H11.625L6.975 5.299H6.231V23H2.697ZM30.6612 9.143C32.1078 7.593 34.0505 6.818 36.4892 6.818C38.9278 6.818 40.8602 7.593 42.2862 9.143C43.7328 10.6723 44.4562 12.6563 44.4562 15.095C44.4562 17.5543 43.7328 19.559 42.2862 21.109C40.8602 22.6383 38.9278 23.403 36.4892 23.403C34.0505 23.403 32.1078 22.6383 30.6612 21.109C29.2352 19.559 28.5222 17.5543 28.5222 15.095C28.5222 12.6563 29.2352 10.6723 30.6612 9.143ZM33.1722 18.908C33.9368 19.9207 35.0425 20.427 36.4892 20.427C37.9358 20.427 39.0415 19.9207 39.8062 18.908C40.5708 17.8747 40.9532 16.6037 40.9532 15.095C40.9532 13.607 40.5708 12.3567 39.8062 11.344C39.0415 10.3107 37.9358 9.794 36.4892 9.794C35.0425 9.794 33.9368 10.3107 33.1722 11.344C32.4075 12.3567 32.0252 13.607 32.0252 15.095C32.0252 16.6037 32.4075 17.8747 33.1722 18.908ZM58.7271 17.947H62.1991C61.9511 19.6003 61.1967 20.923 59.9361 21.915C58.6961 22.907 57.1357 23.403 55.2551 23.403C52.8371 23.403 50.9254 22.6383 49.5201 21.109C48.1354 19.559 47.4431 17.5543 47.4431 15.095C47.4431 12.6357 48.1354 10.6413 49.5201 9.112C50.9254 7.58267 52.8371 6.818 55.2551 6.818C57.1564 6.818 58.7064 7.29333 59.9051 8.244C61.1244 9.19467 61.8477 10.4553 62.0751 12.026H58.6031C58.0864 10.538 56.9807 9.794 55.2861 9.794C53.8187 9.794 52.7234 10.29 52.0001 11.282C51.2974 12.274 50.9461 13.5347 50.9461 15.064C50.9461 16.6347 51.2974 17.9263 52.0001 18.939C52.7234 19.931 53.8187 20.427 55.2861 20.427C57.2287 20.427 58.3757 19.6003 58.7271 17.947ZM76.9042 23L73.5562 16.397H69.4952V23H65.9922V7.221H69.4952V13.421H73.6182L76.7802 7.221H80.3762L76.5012 14.816L80.5932 23H76.9042ZM84.9112 9.143C86.3578 7.593 88.3005 6.818 90.7392 6.818C93.1778 6.818 95.1102 7.593 96.5362 9.143C97.9828 10.6723 98.7062 12.6563 98.7062 15.095C98.7062 17.5543 97.9828 19.559 96.5362 21.109C95.1102 22.6383 93.1778 23.403 90.7392 23.403C88.3005 23.403 86.3578 22.6383 84.9112 21.109C83.4852 19.559 82.7722 17.5543 82.7722 15.095C82.7722 12.6563 83.4852 10.6723 84.9112 9.143ZM87.4222 18.908C88.1868 19.9207 89.2925 20.427 90.7392 20.427C92.1858 20.427 93.2915 19.9207 94.0562 18.908C94.8208 17.8747 95.2032 16.6037 95.2032 15.095C95.2032 13.607 94.8208 12.3567 94.0562 11.344C93.2915 10.3107 92.1858 9.794 90.7392 9.794C89.2925 9.794 88.1868 10.3107 87.4222 11.344C86.6575 12.3567 86.2752 13.607 86.2752 15.095C86.2752 16.6037 86.6575 17.8747 87.4222 18.908ZM114.279 14.289V15.002C115.064 15.2087 115.695 15.6323 116.17 16.273C116.666 16.893 116.914 17.6887 116.914 18.66C116.914 20.086 116.428 21.171 115.457 21.915C114.506 22.6383 113.132 23 111.334 23H102.623V7.221H111.055C112.646 7.221 113.876 7.57233 114.744 8.275C115.612 8.97767 116.046 9.95933 116.046 11.22C116.046 11.9227 115.87 12.553 115.519 13.111C115.188 13.6483 114.775 14.041 114.279 14.289ZM106.064 20.334H110.683C112.481 20.334 113.38 19.6417 113.38 18.257C113.38 16.8517 112.481 16.149 110.683 16.149H106.064V20.334ZM106.064 9.887V13.607H110.311C111.076 13.607 111.634 13.4313 111.985 13.08C112.357 12.7287 112.543 12.2843 112.543 11.747C112.543 10.507 111.799 9.887 110.311 9.887H106.064ZM131.171 17.947H134.643C134.395 19.6003 133.641 20.923 132.38 21.915C131.14 22.907 129.58 23.403 127.699 23.403C125.281 23.403 123.37 22.6383 121.964 21.109C120.58 19.559 119.887 17.5543 119.887 15.095C119.887 12.6357 120.58 10.6413 121.964 9.112C123.37 7.58267 125.281 6.818 127.699 6.818C129.601 6.818 131.151 7.29333 132.349 8.244C133.569 9.19467 134.292 10.4553 134.519 12.026H131.047C130.531 10.538 129.425 9.794 127.73 9.794C126.263 9.794 125.168 10.29 124.444 11.282C123.742 12.274 123.39 13.5347 123.39 15.064C123.39 16.6347 123.742 17.9263 124.444 18.939C125.168 19.931 126.263 20.427 127.73 20.427C129.673 20.427 130.82 19.6003 131.171 17.947ZM149.349 23L146.001 16.397H141.94V23H138.437V7.221H141.94V13.421H146.063L149.225 7.221H152.821L148.946 14.816L153.038 23H149.349ZM160.569 23H156.601V7.221H160.011V17.637H160.755L167.234 7.221H171.295V23H167.885V12.584H167.141L160.569 23ZM180.095 23H176.127V7.221H179.537V17.637H180.281L186.76 7.221H190.821V23H187.411V12.584H186.667L180.095 23ZM185.923 0.649H188.682C188.599 2.09567 188.103 3.222 187.194 4.028C186.285 4.834 185.034 5.237 183.443 5.237C181.852 5.237 180.601 4.834 179.692 4.028C178.783 3.222 178.287 2.09567 178.204 0.649H180.963C181.066 2.137 181.893 2.881 183.443 2.881C184.993 2.881 185.82 2.137 185.923 0.649ZM204.281 23V7.221H216.588V10.197H207.784V23H204.281ZM220.566 9.143C222.013 7.593 223.956 6.818 226.394 6.818C228.833 6.818 230.765 7.593 232.191 9.143C233.638 10.6723 234.361 12.6563 234.361 15.095C234.361 17.5543 233.638 19.559 232.191 21.109C230.765 22.6383 228.833 23.403 226.394 23.403C223.956 23.403 222.013 22.6383 220.566 21.109C219.14 19.559 218.427 17.5543 218.427 15.095C218.427 12.6563 219.14 10.6723 220.566 9.143ZM223.077 18.908C223.842 19.9207 224.948 20.427 226.394 20.427C227.841 20.427 228.947 19.9207 229.711 18.908C230.476 17.8747 230.858 16.6037 230.858 15.095C230.858 13.607 230.476 12.3567 229.711 11.344C228.947 10.3107 227.841 9.794 226.394 9.794C224.948 9.794 223.842 10.3107 223.077 11.344C222.313 12.3567 221.93 13.607 221.93 15.095C221.93 16.6037 222.313 17.8747 223.077 18.908ZM248.632 17.947H252.104C251.856 19.6003 251.102 20.923 249.841 21.915C248.601 22.907 247.041 23.403 245.16 23.403C242.742 23.403 240.831 22.6383 239.425 21.109C238.041 19.559 237.348 17.5543 237.348 15.095C237.348 12.6357 238.041 10.6413 239.425 9.112C240.831 7.58267 242.742 6.818 245.16 6.818C247.062 6.818 248.612 7.29333 249.81 8.244C251.03 9.19467 251.753 10.4553 251.98 12.026H248.508C247.992 10.538 246.886 9.794 245.191 9.794C243.724 9.794 242.629 10.29 241.905 11.282C241.203 12.274 240.851 13.5347 240.851 15.064C240.851 16.6347 241.203 17.9263 241.905 18.939C242.629 19.931 243.724 20.427 245.191 20.427C247.134 20.427 248.281 19.6003 248.632 17.947ZM261.043 29.2H257.478L260.733 21.45L254.037 7.221H257.726L262.128 16.738H262.934L266.933 7.221H270.529L261.043 29.2ZM287.604 20.024H290.456V27.433H287.108V23H274.46V27.433H271.112V20.024H273.344C274.439 17.3993 274.987 14.6093 274.987 11.654V7.221H287.604V20.024ZM284.101 20.024V10.197H278.18V11.685C278.18 14.8883 277.704 17.668 276.754 20.024H284.101ZM303.537 23V21.543H302.793C301.801 22.783 300.251 23.403 298.143 23.403C296.407 23.403 295.032 22.907 294.02 21.915C293.007 20.9023 292.501 19.6727 292.501 18.226C292.501 16.8 293.017 15.56 294.051 14.506C295.084 13.452 296.655 12.925 298.763 12.925H303.413V12.46C303.413 10.538 302.307 9.577 300.096 9.577C298.132 9.577 297.078 10.2487 296.934 11.592H293.462C293.544 10.1247 294.175 8.96733 295.353 8.12C296.551 7.252 298.091 6.818 299.972 6.818C302.1 6.818 303.764 7.29333 304.963 8.244C306.182 9.19467 306.792 10.6207 306.792 12.522V23H303.537ZM299.228 20.551C300.406 20.551 301.398 20.1687 302.204 19.404C303.01 18.6393 303.413 17.7093 303.413 16.614V15.405H299.383C297.151 15.405 296.035 16.273 296.035 18.009C296.035 18.815 296.314 19.4453 296.872 19.9C297.43 20.334 298.215 20.551 299.228 20.551ZM319.2 9.794C317.753 9.794 316.658 10.3003 315.914 11.313C315.191 12.3257 314.829 13.5863 314.829 15.095C314.829 16.6243 315.191 17.8953 315.914 18.908C316.658 19.9207 317.753 20.427 319.2 20.427C320.585 20.427 321.649 19.9413 322.393 18.97C323.137 17.978 323.509 16.6863 323.509 15.095C323.509 13.5037 323.137 12.2223 322.393 11.251C321.649 10.2797 320.585 9.794 319.2 9.794ZM311.419 7.221H314.798V8.74H315.542C316.575 7.45867 318.125 6.818 320.192 6.818C322.279 6.818 323.933 7.593 325.152 9.143C326.392 10.693 327.012 12.677 327.012 15.095C327.012 17.5337 326.392 19.528 325.152 21.078C323.933 22.628 322.279 23.403 320.192 23.403C318.146 23.403 316.637 22.7623 315.666 21.481H314.922V29.2H311.419V7.221ZM341.269 17.947H344.741C344.493 19.6003 343.739 20.923 342.478 21.915C341.238 22.907 339.678 23.403 337.797 23.403C335.379 23.403 333.467 22.6383 332.062 21.109C330.677 19.559 329.985 17.5543 329.985 15.095C329.985 12.6357 330.677 10.6413 332.062 9.112C333.467 7.58267 335.379 6.818 337.797 6.818C339.698 6.818 341.248 7.29333 342.447 8.244C343.666 9.19467 344.39 10.4553 344.617 12.026H341.145C340.628 10.538 339.523 9.794 337.828 9.794C336.361 9.794 335.265 10.29 334.542 11.282C333.839 12.274 333.488 13.5347 333.488 15.064C333.488 16.6347 333.839 17.9263 334.542 18.939C335.265 19.931 336.361 20.427 337.828 20.427C339.771 20.427 340.918 19.6003 341.269 17.947ZM347.046 10.197V7.221H361.182V10.197H355.881V23H352.378V10.197H347.046ZM376.175 14.289V15.002C376.96 15.2087 377.59 15.6323 378.066 16.273C378.562 16.893 378.81 17.6887 378.81 18.66C378.81 20.086 378.324 21.171 377.353 21.915C376.402 22.6383 375.028 23 373.23 23H364.519V7.221H372.951C374.542 7.221 375.772 7.57233 376.64 8.275C377.508 8.97767 377.942 9.95933 377.942 11.22C377.942 11.9227 377.766 12.553 377.415 13.111C377.084 13.6483 376.671 14.041 376.175 14.289ZM367.96 20.334H372.579C374.377 20.334 375.276 19.6417 375.276 18.257C375.276 16.8517 374.377 16.149 372.579 16.149H367.96V20.334ZM367.96 9.887V13.607H372.207C372.971 13.607 373.529 13.4313 373.881 13.08C374.253 12.7287 374.439 12.2843 374.439 11.747C374.439 10.507 373.695 9.887 372.207 9.887H367.96ZM396.911 14.227V15.405H385.255C385.358 18.753 386.836 20.427 389.688 20.427C391.486 20.427 392.633 19.7553 393.129 18.412H396.694C396.384 19.9413 395.63 21.1607 394.431 22.07C393.232 22.9587 391.641 23.403 389.657 23.403C387.218 23.403 385.296 22.628 383.891 21.078C382.486 19.528 381.783 17.5027 381.783 15.002C381.783 12.522 382.475 10.538 383.86 9.05C385.265 7.562 387.167 6.818 389.564 6.818C391.837 6.818 393.615 7.52067 394.896 8.926C396.198 10.3107 396.87 12.0777 396.911 14.227ZM389.533 9.608C387.26 9.608 385.885 10.6723 385.41 12.801H393.315C393.191 11.871 392.809 11.1063 392.168 10.507C391.527 9.90767 390.649 9.608 389.533 9.608ZM415.418 23H411.915V16.397H404.289V23H400.786V7.221H404.289V13.421H411.915V7.221H415.418V23ZM434.884 23H431.381V16.397H423.755V23H420.252V7.221H423.755V13.421H431.381V7.221H434.884V23ZM439.718 7.221H443.221V12.119H447.158C449.142 12.119 450.661 12.5943 451.715 13.545C452.769 14.475 453.296 15.7873 453.296 17.482C453.296 19.1973 452.758 20.551 451.684 21.543C450.63 22.5143 449.121 23 447.158 23H439.718V7.221ZM443.221 14.94V20.024H446.662C447.798 20.024 448.604 19.8173 449.08 19.404C449.555 18.97 449.793 18.3293 449.793 17.482C449.793 16.6347 449.555 16.0043 449.08 15.591C448.604 15.157 447.798 14.94 446.662 14.94H443.221ZM455.745 7.221H459.248V23H455.745V7.221ZM468.056 23H464.088V7.221H467.498V17.637H468.242L474.721 7.221H478.782V23H475.372V12.584H474.628L468.056 23ZM473.884 0.649H476.643C476.56 2.09567 476.064 3.222 475.155 4.028C474.246 4.834 472.995 5.237 471.404 5.237C469.813 5.237 468.562 4.834 467.653 4.028C466.744 3.222 466.248 2.09567 466.165 0.649H468.924C469.027 2.137 469.854 2.881 471.404 2.881C472.954 2.881 473.781 2.137 473.884 0.649ZM489.513 10.197V7.221H503.649V10.197H498.348V23H494.845V10.197H489.513ZM521.032 14.227V15.405H509.376C509.479 18.753 510.957 20.427 513.809 20.427C515.607 20.427 516.754 19.7553 517.25 18.412H520.815C520.505 19.9413 519.751 21.1607 518.552 22.07C517.353 22.9587 515.762 23.403 513.778 23.403C511.339 23.403 509.417 22.628 508.012 21.078C506.607 19.528 505.904 17.5027 505.904 15.002C505.904 12.522 506.596 10.538 507.981 9.05C509.386 7.562 511.288 6.818 513.685 6.818C515.958 6.818 517.736 7.52067 519.017 8.926C520.319 10.3107 520.991 12.0777 521.032 14.227ZM513.654 9.608C511.381 9.608 510.006 10.6723 509.531 12.801H517.436C517.312 11.871 516.93 11.1063 516.289 10.507C515.648 9.90767 514.77 9.608 513.654 9.608ZM535.176 23L531.704 16.8H530.557L526.992 23H523.241L527.953 14.909L523.706 7.221H527.395L530.588 13.049H531.735L535.021 7.221H538.617L534.339 14.816L538.989 23H535.176ZM557.128 23H553.625V16.397H545.999V23H542.496V7.221H545.999V13.421H553.625V7.221H557.128V23ZM565.93 23H561.962V7.221H565.372V17.637H566.116L572.595 7.221H576.656V23H573.246V12.584H572.502L565.93 23ZM580.589 7.221H584.092V11.778C584.092 12.212 584.113 12.553 584.154 12.801C584.216 13.049 584.351 13.328 584.557 13.638C584.764 13.9273 585.115 14.1443 585.611 14.289C586.107 14.4337 586.758 14.506 587.564 14.506C588.68 14.506 589.827 14.382 591.005 14.134V7.221H594.539V23H591.005V17.048C589.621 17.3373 588.143 17.482 586.572 17.482C585.25 17.482 584.165 17.3477 583.317 17.079C582.47 16.7897 581.86 16.366 581.488 15.808C581.116 15.25 580.868 14.7127 580.744 14.196C580.641 13.6793 580.589 13.0283 580.589 12.243V7.221ZM613.578 14.227V15.405H601.922C602.025 18.753 603.503 20.427 606.355 20.427C608.153 20.427 609.3 19.7553 609.796 18.412H613.361C613.051 19.9413 612.297 21.1607 611.098 22.07C609.899 22.9587 608.308 23.403 606.324 23.403C603.885 23.403 601.963 22.628 600.558 21.078C599.153 19.528 598.45 17.5027 598.45 15.002C598.45 12.522 599.142 10.538 600.527 9.05C601.932 7.562 603.834 6.818 606.231 6.818C608.504 6.818 610.282 7.52067 611.563 8.926C612.865 10.3107 613.537 12.0777 613.578 14.227ZM606.2 9.608C603.927 9.608 602.552 10.6723 602.077 12.801H609.982C609.858 11.871 609.476 11.1063 608.835 10.507C608.194 9.90767 607.316 9.608 606.2 9.608ZM627.807 17.947H631.279C631.031 19.6003 630.277 20.923 629.016 21.915C627.776 22.907 626.216 23.403 624.335 23.403C621.917 23.403 620.005 22.6383 618.6 21.109C617.215 19.559 616.523 17.5543 616.523 15.095C616.523 12.6357 617.215 10.6413 618.6 9.112C620.005 7.58267 621.917 6.818 624.335 6.818C626.236 6.818 627.786 7.29333 628.985 8.244C630.204 9.19467 630.928 10.4553 631.155 12.026H627.683C627.166 10.538 626.061 9.794 624.366 9.794C622.899 9.794 621.803 10.29 621.08 11.282C620.377 12.274 620.026 13.5347 620.026 15.064C620.026 16.6347 620.377 17.9263 621.08 18.939C621.803 19.931 622.899 20.427 624.366 20.427C626.309 20.427 627.456 19.6003 627.807 17.947ZM645.984 23L642.636 16.397H638.575V23H635.072V7.221H638.575V13.421H642.698L645.86 7.221H649.456L645.581 14.816L649.673 23H645.984ZM657.204 23H653.236V7.221H656.646V17.637H657.39L663.869 7.221H667.93V23H664.52V12.584H663.776L657.204 23ZM676.731 23H672.763V7.221H676.173V17.637H676.917L683.396 7.221H687.457V23H684.047V12.584H683.303L676.731 23ZM682.559 0.649H685.318C685.235 2.09567 684.739 3.222 683.83 4.028C682.92 4.834 681.67 5.237 680.079 5.237C678.487 5.237 677.237 4.834 676.328 4.028C675.418 3.222 674.922 2.09567 674.84 0.649H677.599C677.702 2.137 678.529 2.881 680.079 2.881C681.629 2.881 682.455 2.137 682.559 0.649ZM7.564 65.2H3.999L7.254 57.45L0.558 43.221H4.247L8.649 52.738H9.455L13.454 43.221H17.05L7.564 65.2ZM34.6086 59H31.1056V52.397H23.4796V59H19.9766V43.221H23.4796V49.421H31.1056V43.221H34.6086V59ZM43.4104 59H39.4424V43.221H42.8524V53.637H43.5964L50.0754 43.221H54.1364V59H50.7264V48.584H49.9824L43.4104 59ZM70.6248 50.289V51.002C71.4101 51.2087 72.0404 51.6323 72.5158 52.273C73.0118 52.893 73.2598 53.6887 73.2598 54.66C73.2598 56.086 72.7741 57.171 71.8028 57.915C70.8521 58.6383 69.4778 59 67.6798 59H58.9688V43.221H67.4008C68.9921 43.221 70.2218 43.5723 71.0898 44.275C71.9578 44.9777 72.3918 45.9593 72.3918 47.22C72.3918 47.9227 72.2161 48.553 71.8648 49.111C71.5341 49.6483 71.1208 50.041 70.6248 50.289ZM62.4098 56.334H67.0288C68.8268 56.334 69.7258 55.6417 69.7258 54.257C69.7258 52.8517 68.8268 52.149 67.0288 52.149H62.4098V56.334ZM62.4098 45.887V49.607H66.6568C67.4214 49.607 67.9794 49.4313 68.3308 49.08C68.7028 48.7287 68.8888 48.2843 68.8888 47.747C68.8888 46.507 68.1448 45.887 66.6568 45.887H62.4098ZM91.3611 50.227V51.405H79.7051C79.8085 54.753 81.2861 56.427 84.1381 56.427C85.9361 56.427 87.0831 55.7553 87.5791 54.412H91.1441C90.8341 55.9413 90.0798 57.1607 88.8811 58.07C87.6825 58.9587 86.0911 59.403 84.1071 59.403C81.6685 59.403 79.7465 58.628 78.3411 57.078C76.9358 55.528 76.2331 53.5027 76.2331 51.002C76.2331 48.522 76.9255 46.538 78.3101 45.05C79.7155 43.562 81.6168 42.818 84.0141 42.818C86.2875 42.818 88.0648 43.5207 89.3461 44.926C90.6481 46.3107 91.3198 48.0777 91.3611 50.227ZM83.9831 45.608C81.7098 45.608 80.3355 46.6723 79.8601 48.801H87.7651C87.6411 47.871 87.2588 47.1063 86.6181 46.507C85.9775 45.9077 85.0991 45.608 83.9831 45.608ZM103.017 45.794C101.571 45.794 100.475 46.3003 99.7314 47.313C99.008 48.3257 98.6464 49.5863 98.6464 51.095C98.6464 52.6243 99.008 53.8953 99.7314 54.908C100.475 55.9207 101.571 56.427 103.017 56.427C104.402 56.427 105.466 55.9413 106.21 54.97C106.954 53.978 107.326 52.6863 107.326 51.095C107.326 49.5037 106.954 48.2223 106.21 47.251C105.466 46.2797 104.402 45.794 103.017 45.794ZM95.2364 43.221H98.6154V44.74H99.3594C100.393 43.4587 101.943 42.818 104.009 42.818C106.097 42.818 107.75 43.593 108.969 45.143C110.209 46.693 110.829 48.677 110.829 51.095C110.829 53.5337 110.209 55.528 108.969 57.078C107.75 58.628 106.097 59.403 104.009 59.403C101.963 59.403 100.455 58.7623 99.4834 57.481H98.7394V65.2H95.2364V43.221ZM125.086 53.947H128.558C128.31 55.6003 127.556 56.923 126.295 57.915C125.055 58.907 123.495 59.403 121.614 59.403C119.196 59.403 117.285 58.6383 115.879 57.109C114.495 55.559 113.802 53.5543 113.802 51.095C113.802 48.6357 114.495 46.6413 115.879 45.112C117.285 43.5827 119.196 42.818 121.614 42.818C123.516 42.818 125.066 43.2933 126.264 44.244C127.484 45.1947 128.207 46.4553 128.434 48.026H124.962C124.446 46.538 123.34 45.794 121.645 45.794C120.178 45.794 119.083 46.29 118.359 47.282C117.657 48.274 117.305 49.5347 117.305 51.064C117.305 52.6347 117.657 53.9263 118.359 54.939C119.083 55.931 120.178 56.427 121.645 56.427C123.588 56.427 124.735 55.6003 125.086 53.947ZM136.32 59H132.352V43.221H135.762V53.637H136.506L142.985 43.221H147.046V59H143.636V48.584H142.892L136.32 59ZM150.39 46.197V43.221H164.526V46.197H159.225V59H155.722V46.197H150.39ZM181.909 50.227V51.405H170.253C170.356 54.753 171.834 56.427 174.686 56.427C176.484 56.427 177.631 55.7553 178.127 54.412H181.692C181.382 55.9413 180.628 57.1607 179.429 58.07C178.23 58.9587 176.639 59.403 174.655 59.403C172.216 59.403 170.294 58.628 168.889 57.078C167.484 55.528 166.781 53.5027 166.781 51.002C166.781 48.522 167.473 46.538 168.858 45.05C170.263 43.562 172.165 42.818 174.562 42.818C176.835 42.818 178.613 43.5207 179.894 44.926C181.196 46.3107 181.868 48.0777 181.909 50.227ZM174.531 45.608C172.258 45.608 170.883 46.6723 170.408 48.801H178.313C178.189 47.871 177.807 47.1063 177.166 46.507C176.525 45.9077 175.647 45.608 174.531 45.608ZM183.782 46.197V43.221H197.918V46.197H192.617V59H189.114V46.197H183.782ZM212.609 59H208.641V43.221H212.051V53.637H212.795L219.274 43.221H223.335V59H219.925V48.584H219.181L212.609 59ZM228.167 59V43.221H233.158L236.692 50.134H237.436L240.939 43.221H245.899V59H242.489V47.654H241.745L238.676 53.575H235.39L232.321 47.654H231.577V59H228.167ZM264.919 50.227V51.405H253.263C253.366 54.753 254.844 56.427 257.696 56.427C259.494 56.427 260.641 55.7553 261.137 54.412H264.702C264.392 55.9413 263.637 57.1607 262.439 58.07C261.24 58.9587 259.649 59.403 257.665 59.403C255.226 59.403 253.304 58.628 251.899 57.078C250.493 55.528 249.791 53.5027 249.791 51.002C249.791 48.522 250.483 46.538 251.868 45.05C253.273 43.562 255.174 42.818 257.572 42.818C259.845 42.818 261.622 43.5207 262.904 44.926C264.206 46.3107 264.877 48.0777 264.919 50.227ZM257.541 45.608C255.267 45.608 253.893 46.6723 253.418 48.801H261.323C261.199 47.871 260.816 47.1063 260.176 46.507C259.535 45.9077 258.657 45.608 257.541 45.608ZM283.426 59H279.923V52.397H272.297V59H268.794V43.221H272.297V49.421H279.923V43.221H283.426V59ZM292.228 59H288.26V43.221H291.67V53.637H292.414L298.893 43.221H302.954V59H299.544V48.584H298.8L292.228 59ZM331.48 36.866H335.2V59H331.48V49.328H320.413V59H316.693V36.866H320.413V45.856H331.48V36.866ZM344.114 59H340.115V54.846H344.114V59ZM347.752 52.707H351.658C351.947 53.761 352.536 54.5877 353.425 55.187C354.314 55.7657 355.43 56.055 356.773 56.055C358.736 56.055 360.266 55.435 361.361 54.195C362.456 52.955 363.066 51.343 363.19 49.359H353.921V46.042H363.159C362.952 44.182 362.312 42.6837 361.237 41.547C360.162 40.3897 358.695 39.811 356.835 39.811C354.272 39.811 352.619 40.803 351.875 42.787H348C348.413 40.865 349.405 39.3357 350.976 38.199C352.547 37.0417 354.479 36.463 356.773 36.463C360.018 36.463 362.549 37.5273 364.368 39.656C366.207 41.764 367.127 44.523 367.127 47.933C367.127 51.3223 366.207 54.0813 364.368 56.21C362.529 58.3387 359.987 59.403 356.742 59.403C354.303 59.403 352.278 58.7933 350.666 57.574C349.054 56.334 348.083 54.7117 347.752 52.707ZM374.205 59H370.206V54.846H374.205V59ZM391.556 45.577H397.787C400.205 45.577 402.065 46.166 403.367 47.344C404.689 48.522 405.351 50.165 405.351 52.273C405.351 54.4017 404.689 56.055 403.367 57.233C402.044 58.411 400.184 59 397.787 59H387.836V36.866H403.522V40.245H391.556V45.577ZM391.556 55.714H397.136C398.727 55.714 399.864 55.4247 400.546 54.846C401.248 54.2467 401.6 53.358 401.6 52.18C401.6 49.8447 400.112 48.677 397.136 48.677H391.556V55.714ZM419.181 59V57.543H418.437C417.445 58.783 415.895 59.403 413.787 59.403C412.051 59.403 410.677 58.907 409.664 57.915C408.652 56.9023 408.145 55.6727 408.145 54.226C408.145 52.8 408.662 51.56 409.695 50.506C410.729 49.452 412.299 48.925 414.407 48.925H419.057V48.46C419.057 46.538 417.952 45.577 415.74 45.577C413.777 45.577 412.723 46.2487 412.578 47.592H409.106C409.189 46.1247 409.819 44.9673 410.997 44.12C412.196 43.252 413.736 42.818 415.616 42.818C417.745 42.818 419.409 43.2933 420.607 44.244C421.827 45.1947 422.436 46.6207 422.436 48.522V59H419.181ZM414.872 56.551C416.05 56.551 417.042 56.1687 417.848 55.404C418.654 54.6393 419.057 53.7093 419.057 52.614V51.405H415.027C412.795 51.405 411.679 52.273 411.679 54.009C411.679 54.815 411.958 55.4453 412.516 55.9C413.074 56.334 413.86 56.551 414.872 56.551ZM420.235 36.463L416.732 40.958H413.663L416.422 36.463H420.235ZM432.21 65.2H428.645L431.9 57.45L425.204 43.221H428.893L433.295 52.738H434.101L438.1 43.221H441.696L432.21 65.2ZM444.622 59V43.221H449.613L453.147 50.134H453.891L457.394 43.221H462.354V59H458.944V47.654H458.2L455.131 53.575H451.845L448.776 47.654H448.032V59H444.622ZM477.034 59V57.543H476.29C475.298 58.783 473.748 59.403 471.64 59.403C469.904 59.403 468.529 58.907 467.517 57.915C466.504 56.9023 465.998 55.6727 465.998 54.226C465.998 52.8 466.514 51.56 467.548 50.506C468.581 49.452 470.152 48.925 472.26 48.925H476.91V48.46C476.91 46.538 475.804 45.577 473.593 45.577C471.629 45.577 470.575 46.2487 470.431 47.592H466.959C467.041 46.1247 467.672 44.9673 468.85 44.12C470.048 43.252 471.588 42.818 473.469 42.818C475.597 42.818 477.261 43.2933 478.46 44.244C479.679 45.1947 480.289 46.6207 480.289 48.522V59H477.034ZM472.725 56.551C473.903 56.551 474.895 56.1687 475.701 55.404C476.507 54.6393 476.91 53.7093 476.91 52.614V51.405H472.88C470.648 51.405 469.532 52.273 469.532 54.009C469.532 54.815 469.811 55.4453 470.369 55.9C470.927 56.334 471.712 56.551 472.725 56.551ZM499.548 59H496.045V52.397H488.419V59H484.916V43.221H488.419V49.421H496.045V43.221H499.548V59ZM514.24 59V57.543H513.496C512.504 58.783 510.954 59.403 508.846 59.403C507.11 59.403 505.736 58.907 504.723 57.915C503.71 56.9023 503.204 55.6727 503.204 54.226C503.204 52.8 503.721 51.56 504.754 50.506C505.787 49.452 507.358 48.925 509.466 48.925H514.116V48.46C514.116 46.538 513.01 45.577 510.799 45.577C508.836 45.577 507.782 46.2487 507.637 47.592H504.165C504.248 46.1247 504.878 44.9673 506.056 44.12C507.255 43.252 508.794 42.818 510.675 42.818C512.804 42.818 514.467 43.2933 515.666 44.244C516.885 45.1947 517.495 46.6207 517.495 48.522V59H514.24ZM509.931 56.551C511.109 56.551 512.101 56.1687 512.907 55.404C513.713 54.6393 514.116 53.7093 514.116 52.614V51.405H510.086C507.854 51.405 506.738 52.273 506.738 54.009C506.738 54.815 507.017 55.4453 507.575 55.9C508.133 56.334 508.918 56.551 509.931 56.551Z" fill="#222222"/>
</svg>
