<svg width="856" height="284" viewBox="0 0 856 284" fill="none" xmlns="http://www.w3.org/2000/svg">
<path d="M42.5671 256.447H838.042" stroke="#767676"/>
<path d="M35.0379 279.713H29.4246V278.898L31.7156 276.572C32.1414 276.143 32.4988 275.76 32.7879 275.424C33.0808 275.088 33.3035 274.758 33.4558 274.434C33.6082 274.105 33.6844 273.746 33.6844 273.355C33.6844 272.871 33.5398 272.502 33.2508 272.248C32.9656 271.99 32.5887 271.861 32.1199 271.861C31.7097 271.861 31.3465 271.932 31.0301 272.072C30.7137 272.213 30.3894 272.412 30.0574 272.67L29.5359 272.014C29.7625 271.822 30.0086 271.652 30.2742 271.504C30.5437 271.355 30.8308 271.238 31.1355 271.152C31.4441 271.066 31.7722 271.023 32.1199 271.023C32.6472 271.023 33.1023 271.115 33.4851 271.299C33.868 271.482 34.1629 271.744 34.3699 272.084C34.5808 272.424 34.6863 272.828 34.6863 273.297C34.6863 273.75 34.5965 274.172 34.4168 274.562C34.2371 274.949 33.9851 275.334 33.6609 275.717C33.3367 276.096 32.9578 276.498 32.5242 276.924L30.6609 278.781V278.822H35.0379V279.713ZM41.9519 275.418C41.9519 276.113 41.8992 276.734 41.7937 277.281C41.6883 277.828 41.5222 278.291 41.2957 278.67C41.0691 279.049 40.7762 279.338 40.4168 279.537C40.0574 279.732 39.6258 279.83 39.1219 279.83C38.4851 279.83 37.9578 279.656 37.5398 279.309C37.1258 278.961 36.8152 278.459 36.6082 277.803C36.4051 277.143 36.3035 276.348 36.3035 275.418C36.3035 274.504 36.3953 273.719 36.5789 273.062C36.7664 272.402 37.0672 271.896 37.4812 271.545C37.8953 271.189 38.4422 271.012 39.1219 271.012C39.7664 271.012 40.2976 271.188 40.7156 271.539C41.1336 271.887 41.4441 272.391 41.6472 273.051C41.8504 273.707 41.9519 274.496 41.9519 275.418ZM37.282 275.418C37.282 276.215 37.3426 276.879 37.4637 277.41C37.5847 277.941 37.7801 278.34 38.0496 278.605C38.323 278.867 38.6805 278.998 39.1219 278.998C39.5633 278.998 39.9187 278.867 40.1883 278.605C40.4617 278.344 40.659 277.947 40.7801 277.416C40.9051 276.885 40.9676 276.219 40.9676 275.418C40.9676 274.633 40.907 273.977 40.7859 273.449C40.6648 272.918 40.4695 272.52 40.2 272.254C39.9305 271.984 39.5711 271.85 39.1219 271.85C38.6726 271.85 38.3133 271.984 38.0437 272.254C37.7742 272.52 37.5789 272.918 37.4578 273.449C37.3406 273.977 37.282 274.633 37.282 275.418ZM46.7801 279.713H45.8308V273.643C45.8308 273.412 45.8308 273.215 45.8308 273.051C45.8347 272.883 45.8387 272.73 45.8426 272.594C45.8504 272.453 45.8601 272.311 45.8719 272.166C45.7508 272.291 45.6375 272.398 45.532 272.488C45.4265 272.574 45.2957 272.682 45.1394 272.811L44.1609 273.596L43.6512 272.934L45.9715 271.146H46.7801V279.713ZM55.6394 279.713H50.0262V278.898L52.3172 276.572C52.743 276.143 53.1004 275.76 53.3894 275.424C53.6824 275.088 53.9051 274.758 54.0574 274.434C54.2097 274.105 54.2859 273.746 54.2859 273.355C54.2859 272.871 54.1414 272.502 53.8523 272.248C53.5672 271.99 53.1902 271.861 52.7215 271.861C52.3113 271.861 51.948 271.932 51.6316 272.072C51.3152 272.213 50.991 272.412 50.659 272.67L50.1375 272.014C50.364 271.822 50.6101 271.652 50.8758 271.504C51.1453 271.355 51.4324 271.238 51.7371 271.152C52.0457 271.066 52.3738 271.023 52.7215 271.023C53.2488 271.023 53.7039 271.115 54.0867 271.299C54.4695 271.482 54.7644 271.744 54.9715 272.084C55.1824 272.424 55.2879 272.828 55.2879 273.297C55.2879 273.75 55.198 274.172 55.0183 274.562C54.8387 274.949 54.5867 275.334 54.2625 275.717C53.9383 276.096 53.5594 276.498 53.1258 276.924L51.2625 278.781V278.822H55.6394V279.713Z" fill="#767676"/>
<path d="M123.424 279.713H117.811V278.898L120.102 276.572C120.527 276.143 120.885 275.76 121.174 275.424C121.467 275.088 121.689 274.758 121.842 274.434C121.994 274.105 122.07 273.746 122.07 273.355C122.07 272.871 121.926 272.502 121.637 272.248C121.352 271.99 120.975 271.861 120.506 271.861C120.096 271.861 119.732 271.932 119.416 272.072C119.1 272.213 118.775 272.412 118.443 272.67L117.922 272.014C118.148 271.822 118.395 271.652 118.66 271.504C118.93 271.355 119.217 271.238 119.522 271.152C119.83 271.066 120.158 271.023 120.506 271.023C121.033 271.023 121.488 271.115 121.871 271.299C122.254 271.482 122.549 271.744 122.756 272.084C122.967 272.424 123.072 272.828 123.072 273.297C123.072 273.75 122.982 274.172 122.803 274.562C122.623 274.949 122.371 275.334 122.047 275.717C121.723 276.096 121.344 276.498 120.91 276.924L119.047 278.781V278.822H123.424V279.713ZM130.338 275.418C130.338 276.113 130.285 276.734 130.18 277.281C130.074 277.828 129.908 278.291 129.682 278.67C129.455 279.049 129.162 279.338 128.803 279.537C128.443 279.732 128.012 279.83 127.508 279.83C126.871 279.83 126.344 279.656 125.926 279.309C125.512 278.961 125.201 278.459 124.994 277.803C124.791 277.143 124.689 276.348 124.689 275.418C124.689 274.504 124.781 273.719 124.965 273.062C125.152 272.402 125.453 271.896 125.867 271.545C126.281 271.189 126.828 271.012 127.508 271.012C128.152 271.012 128.684 271.188 129.102 271.539C129.52 271.887 129.83 272.391 130.033 273.051C130.236 273.707 130.338 274.496 130.338 275.418ZM125.668 275.418C125.668 276.215 125.729 276.879 125.85 277.41C125.971 277.941 126.166 278.34 126.436 278.605C126.709 278.867 127.066 278.998 127.508 278.998C127.949 278.998 128.305 278.867 128.574 278.605C128.848 278.344 129.045 277.947 129.166 277.416C129.291 276.885 129.354 276.219 129.354 275.418C129.354 274.633 129.293 273.977 129.172 273.449C129.051 272.918 128.855 272.52 128.586 272.254C128.316 271.984 127.957 271.85 127.508 271.85C127.059 271.85 126.699 271.984 126.43 272.254C126.16 272.52 125.965 272.918 125.844 273.449C125.727 273.977 125.668 274.633 125.668 275.418ZM135.166 279.713H134.217V273.643C134.217 273.412 134.217 273.215 134.217 273.051C134.221 272.883 134.225 272.73 134.229 272.594C134.236 272.453 134.246 272.311 134.258 272.166C134.137 272.291 134.023 272.398 133.918 272.488C133.813 272.574 133.682 272.682 133.525 272.811L132.547 273.596L132.037 272.934L134.357 271.146H135.166V279.713ZM143.709 273.145C143.709 273.527 143.635 273.859 143.486 274.141C143.338 274.422 143.131 274.652 142.865 274.832C142.6 275.008 142.287 275.131 141.928 275.201V275.248C142.607 275.334 143.117 275.553 143.457 275.904C143.801 276.256 143.973 276.717 143.973 277.287C143.973 277.783 143.855 278.223 143.621 278.605C143.391 278.988 143.035 279.289 142.555 279.508C142.078 279.723 141.467 279.83 140.721 279.83C140.268 279.83 139.848 279.793 139.461 279.719C139.078 279.648 138.711 279.529 138.359 279.361V278.447C138.715 278.623 139.102 278.762 139.52 278.863C139.938 278.961 140.342 279.01 140.732 279.01C141.514 279.01 142.078 278.855 142.426 278.547C142.773 278.234 142.947 277.809 142.947 277.27C142.947 276.898 142.85 276.6 142.654 276.373C142.463 276.143 142.186 275.975 141.822 275.869C141.463 275.76 141.029 275.705 140.522 275.705H139.666V274.873H140.527C140.992 274.873 141.387 274.805 141.711 274.668C142.035 274.531 142.281 274.34 142.449 274.094C142.621 273.844 142.707 273.549 142.707 273.209C142.707 272.775 142.563 272.441 142.273 272.207C141.984 271.969 141.592 271.85 141.096 271.85C140.791 271.85 140.514 271.881 140.264 271.943C140.014 272.006 139.779 272.092 139.561 272.201C139.342 272.311 139.123 272.438 138.904 272.582L138.412 271.914C138.725 271.672 139.105 271.463 139.555 271.287C140.004 271.111 140.514 271.023 141.084 271.023C141.959 271.023 142.615 271.223 143.053 271.621C143.49 272.02 143.709 272.527 143.709 273.145Z" fill="#767676"/>
<path d="M211.81 279.713H206.197V278.898L208.488 276.572C208.914 276.143 209.271 275.76 209.56 275.424C209.853 275.088 210.076 274.758 210.228 274.434C210.38 274.105 210.457 273.746 210.457 273.355C210.457 272.871 210.312 272.502 210.023 272.248C209.738 271.99 209.361 271.861 208.892 271.861C208.482 271.861 208.119 271.932 207.802 272.072C207.486 272.213 207.162 272.412 206.83 272.67L206.308 272.014C206.535 271.822 206.781 271.652 207.046 271.504C207.316 271.355 207.603 271.238 207.908 271.152C208.216 271.066 208.544 271.023 208.892 271.023C209.419 271.023 209.875 271.115 210.257 271.299C210.64 271.482 210.935 271.744 211.142 272.084C211.353 272.424 211.459 272.828 211.459 273.297C211.459 273.75 211.369 274.172 211.189 274.562C211.009 274.949 210.757 275.334 210.433 275.717C210.109 276.096 209.73 276.498 209.296 276.924L207.433 278.781V278.822H211.81V279.713ZM218.724 275.418C218.724 276.113 218.671 276.734 218.566 277.281C218.46 277.828 218.294 278.291 218.068 278.67C217.841 279.049 217.548 279.338 217.189 279.537C216.83 279.732 216.398 279.83 215.894 279.83C215.257 279.83 214.73 279.656 214.312 279.309C213.898 278.961 213.587 278.459 213.38 277.803C213.177 277.143 213.076 276.348 213.076 275.418C213.076 274.504 213.168 273.719 213.351 273.062C213.539 272.402 213.839 271.896 214.253 271.545C214.668 271.189 215.214 271.012 215.894 271.012C216.539 271.012 217.07 271.188 217.488 271.539C217.906 271.887 218.216 272.391 218.419 273.051C218.623 273.707 218.724 274.496 218.724 275.418ZM214.054 275.418C214.054 276.215 214.115 276.879 214.236 277.41C214.357 277.941 214.552 278.34 214.822 278.605C215.095 278.867 215.453 278.998 215.894 278.998C216.335 278.998 216.691 278.867 216.96 278.605C217.234 278.344 217.431 277.947 217.552 277.416C217.677 276.885 217.74 276.219 217.74 275.418C217.74 274.633 217.679 273.977 217.558 273.449C217.437 272.918 217.242 272.52 216.972 272.254C216.703 271.984 216.343 271.85 215.894 271.85C215.445 271.85 215.085 271.984 214.816 272.254C214.546 272.52 214.351 272.918 214.23 273.449C214.113 273.977 214.054 274.633 214.054 275.418ZM223.552 279.713H222.603V273.643C222.603 273.412 222.603 273.215 222.603 273.051C222.607 272.883 222.611 272.73 222.615 272.594C222.623 272.453 222.632 272.311 222.644 272.166C222.523 272.291 222.41 272.398 222.304 272.488C222.199 272.574 222.068 272.682 221.912 272.811L220.933 273.596L220.423 272.934L222.744 271.146H223.552V279.713ZM232.839 277.727H231.556V279.713H230.607V277.727H226.464V276.906L230.543 271.1H231.556V276.848H232.839V277.727ZM230.607 276.848V274.047C230.607 273.832 230.609 273.639 230.613 273.467C230.617 273.291 230.623 273.129 230.63 272.98C230.638 272.828 230.644 272.684 230.648 272.547C230.656 272.41 230.662 272.275 230.666 272.143H230.619C230.544 272.299 230.459 272.465 230.361 272.641C230.267 272.812 230.171 272.967 230.074 273.104L227.431 276.848H230.607Z" fill="#767676"/>
<path d="M300.196 279.713H294.583V278.898L296.874 276.572C297.3 276.143 297.657 275.76 297.946 275.424C298.239 275.088 298.462 274.758 298.614 274.434C298.767 274.105 298.843 273.746 298.843 273.355C298.843 272.871 298.698 272.502 298.409 272.248C298.124 271.99 297.747 271.861 297.278 271.861C296.868 271.861 296.505 271.932 296.189 272.072C295.872 272.213 295.548 272.412 295.216 272.67L294.694 272.014C294.921 271.822 295.167 271.652 295.433 271.504C295.702 271.355 295.989 271.238 296.294 271.152C296.603 271.066 296.931 271.023 297.278 271.023C297.806 271.023 298.261 271.115 298.644 271.299C299.026 271.482 299.321 271.744 299.528 272.084C299.739 272.424 299.845 272.828 299.845 273.297C299.845 273.75 299.755 274.172 299.575 274.562C299.396 274.949 299.144 275.334 298.819 275.717C298.495 276.096 298.116 276.498 297.683 276.924L295.819 278.781V278.822H300.196V279.713ZM307.11 275.418C307.11 276.113 307.058 276.734 306.952 277.281C306.847 277.828 306.681 278.291 306.454 278.67C306.228 279.049 305.935 279.338 305.575 279.537C305.216 279.732 304.784 279.83 304.28 279.83C303.644 279.83 303.116 279.656 302.698 279.309C302.284 278.961 301.974 278.459 301.767 277.803C301.564 277.143 301.462 276.348 301.462 275.418C301.462 274.504 301.554 273.719 301.737 273.062C301.925 272.402 302.226 271.896 302.64 271.545C303.054 271.189 303.601 271.012 304.28 271.012C304.925 271.012 305.456 271.188 305.874 271.539C306.292 271.887 306.603 272.391 306.806 273.051C307.009 273.707 307.11 274.496 307.11 275.418ZM302.44 275.418C302.44 276.215 302.501 276.879 302.622 277.41C302.743 277.941 302.939 278.34 303.208 278.605C303.482 278.867 303.839 278.998 304.28 278.998C304.722 278.998 305.077 278.867 305.347 278.605C305.62 278.344 305.817 277.947 305.939 277.416C306.064 276.885 306.126 276.219 306.126 275.418C306.126 274.633 306.065 273.977 305.944 273.449C305.823 272.918 305.628 272.52 305.358 272.254C305.089 271.984 304.73 271.85 304.28 271.85C303.831 271.85 303.472 271.984 303.202 272.254C302.933 272.52 302.737 272.918 302.616 273.449C302.499 273.977 302.44 274.633 302.44 275.418ZM311.939 279.713H310.989V273.643C310.989 273.412 310.989 273.215 310.989 273.051C310.993 272.883 310.997 272.73 311.001 272.594C311.009 272.453 311.019 272.311 311.03 272.166C310.909 272.291 310.796 272.398 310.69 272.488C310.585 272.574 310.454 272.682 310.298 272.811L309.319 273.596L308.81 272.934L311.13 271.146H311.939V279.713ZM317.892 274.475C318.474 274.475 318.98 274.574 319.409 274.773C319.839 274.969 320.171 275.254 320.405 275.629C320.644 276.004 320.763 276.459 320.763 276.994C320.763 277.58 320.636 278.086 320.382 278.512C320.128 278.934 319.763 279.26 319.286 279.49C318.81 279.717 318.239 279.83 317.575 279.83C317.13 279.83 316.716 279.791 316.333 279.713C315.95 279.635 315.628 279.518 315.366 279.361V278.436C315.651 278.607 315.997 278.744 316.403 278.846C316.81 278.947 317.204 278.998 317.587 278.998C318.021 278.998 318.399 278.93 318.724 278.793C319.052 278.652 319.306 278.441 319.485 278.16C319.669 277.875 319.761 277.518 319.761 277.088C319.761 276.518 319.585 276.078 319.233 275.77C318.886 275.457 318.335 275.301 317.581 275.301C317.339 275.301 317.073 275.32 316.784 275.359C316.495 275.398 316.257 275.441 316.069 275.488L315.577 275.166L315.905 271.146H320.165V272.037H316.737L316.521 274.621C316.669 274.59 316.86 274.559 317.095 274.527C317.329 274.492 317.595 274.475 317.892 274.475Z" fill="#767676"/>
<path d="M388.582 279.713H382.969V278.898L385.26 276.572C385.686 276.143 386.043 275.76 386.332 275.424C386.625 275.088 386.848 274.758 387 274.434C387.152 274.105 387.229 273.746 387.229 273.355C387.229 272.871 387.084 272.502 386.795 272.248C386.51 271.99 386.133 271.861 385.664 271.861C385.254 271.861 384.891 271.932 384.574 272.072C384.258 272.213 383.934 272.412 383.602 272.67L383.08 272.014C383.307 271.822 383.553 271.652 383.818 271.504C384.088 271.355 384.375 271.238 384.68 271.152C384.988 271.066 385.316 271.023 385.664 271.023C386.191 271.023 386.647 271.115 387.029 271.299C387.412 271.482 387.707 271.744 387.914 272.084C388.125 272.424 388.231 272.828 388.231 273.297C388.231 273.75 388.141 274.172 387.961 274.562C387.781 274.949 387.529 275.334 387.205 275.717C386.881 276.096 386.502 276.498 386.068 276.924L384.205 278.781V278.822H388.582V279.713ZM395.496 275.418C395.496 276.113 395.443 276.734 395.338 277.281C395.232 277.828 395.066 278.291 394.84 278.67C394.613 279.049 394.32 279.338 393.961 279.537C393.602 279.732 393.17 279.83 392.666 279.83C392.029 279.83 391.502 279.656 391.084 279.309C390.67 278.961 390.359 278.459 390.152 277.803C389.949 277.143 389.848 276.348 389.848 275.418C389.848 274.504 389.939 273.719 390.123 273.062C390.311 272.402 390.611 271.896 391.025 271.545C391.439 271.189 391.986 271.012 392.666 271.012C393.311 271.012 393.842 271.188 394.26 271.539C394.678 271.887 394.988 272.391 395.191 273.051C395.395 273.707 395.496 274.496 395.496 275.418ZM390.826 275.418C390.826 276.215 390.887 276.879 391.008 277.41C391.129 277.941 391.324 278.34 391.594 278.605C391.867 278.867 392.225 278.998 392.666 278.998C393.107 278.998 393.463 278.867 393.732 278.605C394.006 278.344 394.203 277.947 394.324 277.416C394.449 276.885 394.512 276.219 394.512 275.418C394.512 274.633 394.451 273.977 394.33 273.449C394.209 272.918 394.014 272.52 393.744 272.254C393.475 271.984 393.115 271.85 392.666 271.85C392.217 271.85 391.857 271.984 391.588 272.254C391.318 272.52 391.123 272.918 391.002 273.449C390.885 273.977 390.826 274.633 390.826 275.418ZM400.324 279.713H399.375V273.643C399.375 273.412 399.375 273.215 399.375 273.051C399.379 272.883 399.383 272.73 399.387 272.594C399.395 272.453 399.404 272.311 399.416 272.166C399.295 272.291 399.182 272.398 399.076 272.488C398.971 272.574 398.84 272.682 398.684 272.811L397.705 273.596L397.195 272.934L399.516 271.146H400.324V279.713ZM403.658 276.051C403.658 275.535 403.693 275.031 403.764 274.539C403.838 274.047 403.961 273.59 404.133 273.168C404.305 272.742 404.539 272.369 404.836 272.049C405.133 271.729 405.502 271.479 405.943 271.299C406.389 271.115 406.922 271.023 407.543 271.023C407.719 271.023 407.908 271.033 408.111 271.053C408.314 271.068 408.482 271.096 408.615 271.135V271.973C408.471 271.922 408.305 271.885 408.117 271.861C407.934 271.838 407.748 271.826 407.561 271.826C406.834 271.826 406.262 271.984 405.844 272.301C405.43 272.617 405.131 273.047 404.947 273.59C404.764 274.129 404.658 274.736 404.631 275.412H404.695C404.816 275.217 404.971 275.041 405.158 274.885C405.346 274.725 405.572 274.598 405.838 274.504C406.107 274.41 406.42 274.363 406.775 274.363C407.275 274.363 407.711 274.465 408.082 274.668C408.457 274.871 408.746 275.166 408.949 275.553C409.156 275.939 409.26 276.408 409.26 276.959C409.26 277.549 409.15 278.059 408.932 278.488C408.713 278.918 408.4 279.25 407.994 279.484C407.592 279.715 407.111 279.83 406.553 279.83C406.135 279.83 405.75 279.75 405.398 279.59C405.047 279.43 404.74 279.191 404.479 278.875C404.221 278.559 404.02 278.166 403.875 277.697C403.731 277.225 403.658 276.676 403.658 276.051ZM406.541 279.01C407.072 279.01 407.498 278.84 407.818 278.5C408.139 278.16 408.299 277.646 408.299 276.959C408.299 276.396 408.156 275.951 407.871 275.623C407.586 275.295 407.156 275.131 406.582 275.131C406.191 275.131 405.852 275.213 405.563 275.377C405.273 275.537 405.049 275.74 404.889 275.986C404.729 276.232 404.648 276.482 404.648 276.736C404.648 276.994 404.686 277.256 404.76 277.521C404.838 277.787 404.955 278.033 405.111 278.26C405.268 278.486 405.465 278.668 405.703 278.805C405.941 278.941 406.221 279.01 406.541 279.01Z" fill="#767676"/>
<path d="M476.968 279.713H471.355V278.898L473.646 276.572C474.072 276.143 474.429 275.76 474.718 275.424C475.011 275.088 475.234 274.758 475.386 274.434C475.539 274.105 475.615 273.746 475.615 273.355C475.615 272.871 475.47 272.502 475.181 272.248C474.896 271.99 474.519 271.861 474.05 271.861C473.64 271.861 473.277 271.932 472.96 272.072C472.644 272.213 472.32 272.412 471.988 272.67L471.466 272.014C471.693 271.822 471.939 271.652 472.205 271.504C472.474 271.355 472.761 271.238 473.066 271.152C473.375 271.066 473.703 271.023 474.05 271.023C474.578 271.023 475.033 271.115 475.416 271.299C475.798 271.482 476.093 271.744 476.3 272.084C476.511 272.424 476.617 272.828 476.617 273.297C476.617 273.75 476.527 274.172 476.347 274.562C476.168 274.949 475.916 275.334 475.591 275.717C475.267 276.096 474.888 276.498 474.455 276.924L472.591 278.781V278.822H476.968V279.713ZM483.882 275.418C483.882 276.113 483.83 276.734 483.724 277.281C483.619 277.828 483.453 278.291 483.226 278.67C483 279.049 482.707 279.338 482.347 279.537C481.988 279.732 481.556 279.83 481.052 279.83C480.416 279.83 479.888 279.656 479.47 279.309C479.056 278.961 478.746 278.459 478.539 277.803C478.335 277.143 478.234 276.348 478.234 275.418C478.234 274.504 478.326 273.719 478.509 273.062C478.697 272.402 478.998 271.896 479.412 271.545C479.826 271.189 480.373 271.012 481.052 271.012C481.697 271.012 482.228 271.188 482.646 271.539C483.064 271.887 483.375 272.391 483.578 273.051C483.781 273.707 483.882 274.496 483.882 275.418ZM479.212 275.418C479.212 276.215 479.273 276.879 479.394 277.41C479.515 277.941 479.71 278.34 479.98 278.605C480.253 278.867 480.611 278.998 481.052 278.998C481.494 278.998 481.849 278.867 482.119 278.605C482.392 278.344 482.589 277.947 482.71 277.416C482.835 276.885 482.898 276.219 482.898 275.418C482.898 274.633 482.837 273.977 482.716 273.449C482.595 272.918 482.4 272.52 482.13 272.254C481.861 271.984 481.502 271.85 481.052 271.85C480.603 271.85 480.244 271.984 479.974 272.254C479.705 272.52 479.509 272.918 479.388 273.449C479.271 273.977 479.212 274.633 479.212 275.418ZM488.71 279.713H487.761V273.643C487.761 273.412 487.761 273.215 487.761 273.051C487.765 272.883 487.769 272.73 487.773 272.594C487.781 272.453 487.791 272.311 487.802 272.166C487.681 272.291 487.568 272.398 487.462 272.488C487.357 272.574 487.226 272.682 487.07 272.811L486.091 273.596L485.582 272.934L487.902 271.146H488.71V279.713ZM493.064 279.713L496.58 272.037H491.91V271.146H497.623V271.896L494.13 279.713H493.064Z" fill="#767676"/>
<path d="M565.354 279.713H559.741V278.898L562.032 276.572C562.458 276.143 562.815 275.76 563.104 275.424C563.397 275.088 563.62 274.758 563.772 274.434C563.924 274.105 564.001 273.746 564.001 273.355C564.001 272.871 563.856 272.502 563.567 272.248C563.282 271.99 562.905 271.861 562.436 271.861C562.026 271.861 561.663 271.932 561.346 272.072C561.03 272.213 560.706 272.412 560.374 272.67L559.852 272.014C560.079 271.822 560.325 271.652 560.59 271.504C560.86 271.355 561.147 271.238 561.452 271.152C561.76 271.066 562.089 271.023 562.436 271.023C562.964 271.023 563.419 271.115 563.801 271.299C564.184 271.482 564.479 271.744 564.686 272.084C564.897 272.424 565.003 272.828 565.003 273.297C565.003 273.75 564.913 274.172 564.733 274.562C564.553 274.949 564.301 275.334 563.977 275.717C563.653 276.096 563.274 276.498 562.84 276.924L560.977 278.781V278.822H565.354V279.713ZM572.268 275.418C572.268 276.113 572.215 276.734 572.11 277.281C572.005 277.828 571.839 278.291 571.612 278.67C571.385 279.049 571.092 279.338 570.733 279.537C570.374 279.732 569.942 279.83 569.438 279.83C568.801 279.83 568.274 279.656 567.856 279.309C567.442 278.961 567.131 278.459 566.924 277.803C566.721 277.143 566.62 276.348 566.62 275.418C566.62 274.504 566.712 273.719 566.895 273.062C567.083 272.402 567.383 271.896 567.797 271.545C568.212 271.189 568.758 271.012 569.438 271.012C570.083 271.012 570.614 271.188 571.032 271.539C571.45 271.887 571.76 272.391 571.964 273.051C572.167 273.707 572.268 274.496 572.268 275.418ZM567.598 275.418C567.598 276.215 567.659 276.879 567.78 277.41C567.901 277.941 568.096 278.34 568.366 278.605C568.639 278.867 568.997 278.998 569.438 278.998C569.88 278.998 570.235 278.867 570.505 278.605C570.778 278.344 570.975 277.947 571.096 277.416C571.221 276.885 571.284 276.219 571.284 275.418C571.284 274.633 571.223 273.977 571.102 273.449C570.981 272.918 570.786 272.52 570.516 272.254C570.247 271.984 569.887 271.85 569.438 271.85C568.989 271.85 568.63 271.984 568.36 272.254C568.09 272.52 567.895 272.918 567.774 273.449C567.657 273.977 567.598 274.633 567.598 275.418ZM577.096 279.713H576.147V273.643C576.147 273.412 576.147 273.215 576.147 273.051C576.151 272.883 576.155 272.73 576.159 272.594C576.167 272.453 576.176 272.311 576.188 272.166C576.067 272.291 575.954 272.398 575.848 272.488C575.743 272.574 575.612 272.682 575.456 272.811L574.477 273.596L573.967 272.934L576.288 271.146H577.096V279.713ZM583.172 271.023C583.669 271.023 584.108 271.102 584.491 271.258C584.874 271.414 585.172 271.645 585.387 271.949C585.606 272.25 585.715 272.621 585.715 273.062C585.715 273.41 585.639 273.715 585.487 273.977C585.339 274.234 585.137 274.461 584.883 274.656C584.63 274.848 584.348 275.02 584.04 275.172C584.407 275.34 584.737 275.529 585.03 275.74C585.327 275.951 585.561 276.199 585.733 276.484C585.905 276.77 585.991 277.107 585.991 277.498C585.991 277.979 585.874 278.395 585.639 278.746C585.409 279.094 585.085 279.361 584.667 279.549C584.249 279.736 583.758 279.83 583.196 279.83C582.59 279.83 582.075 279.74 581.649 279.561C581.227 279.377 580.905 279.115 580.682 278.775C580.464 278.432 580.354 278.02 580.354 277.539C580.354 277.145 580.438 276.803 580.606 276.514C580.774 276.221 580.997 275.969 581.274 275.758C581.551 275.547 581.854 275.369 582.182 275.225C581.897 275.068 581.635 274.891 581.397 274.691C581.163 274.492 580.975 274.26 580.835 273.994C580.698 273.725 580.63 273.412 580.63 273.057C580.63 272.623 580.739 272.256 580.958 271.955C581.18 271.65 581.483 271.42 581.866 271.264C582.253 271.104 582.688 271.023 583.172 271.023ZM581.309 277.545C581.309 277.982 581.464 278.344 581.772 278.629C582.081 278.91 582.547 279.051 583.172 279.051C583.766 279.051 584.225 278.91 584.549 278.629C584.874 278.344 585.036 277.971 585.036 277.51C585.036 277.225 584.962 276.975 584.813 276.76C584.665 276.541 584.454 276.346 584.18 276.174C583.907 276.002 583.585 275.846 583.214 275.705L583.003 275.629C582.643 275.777 582.337 275.943 582.083 276.127C581.833 276.307 581.641 276.512 581.508 276.742C581.376 276.973 581.309 277.24 581.309 277.545ZM583.161 271.82C582.7 271.82 582.323 271.932 582.03 272.154C581.737 272.373 581.59 272.689 581.59 273.104C581.59 273.4 581.661 273.652 581.801 273.859C581.946 274.062 582.141 274.238 582.387 274.387C582.633 274.531 582.909 274.666 583.214 274.791C583.51 274.666 583.774 274.529 584.005 274.381C584.235 274.229 584.417 274.049 584.549 273.842C584.682 273.635 584.749 273.387 584.749 273.098C584.749 272.684 584.602 272.367 584.309 272.148C584.02 271.93 583.637 271.82 583.161 271.82Z" fill="#767676"/>
<path d="M653.74 279.713H648.127V278.898L650.418 276.572C650.844 276.143 651.201 275.76 651.49 275.424C651.783 275.088 652.006 274.758 652.158 274.434C652.311 274.105 652.387 273.746 652.387 273.355C652.387 272.871 652.242 272.502 651.953 272.248C651.668 271.99 651.291 271.861 650.822 271.861C650.412 271.861 650.049 271.932 649.732 272.072C649.416 272.213 649.092 272.412 648.76 272.67L648.238 272.014C648.465 271.822 648.711 271.652 648.977 271.504C649.246 271.355 649.533 271.238 649.838 271.152C650.147 271.066 650.475 271.023 650.822 271.023C651.35 271.023 651.805 271.115 652.188 271.299C652.57 271.482 652.865 271.744 653.072 272.084C653.283 272.424 653.389 272.828 653.389 273.297C653.389 273.75 653.299 274.172 653.119 274.562C652.94 274.949 652.688 275.334 652.363 275.717C652.039 276.096 651.66 276.498 651.227 276.924L649.363 278.781V278.822H653.74V279.713ZM660.654 275.418C660.654 276.113 660.602 276.734 660.496 277.281C660.391 277.828 660.225 278.291 659.998 278.67C659.772 279.049 659.479 279.338 659.119 279.537C658.76 279.732 658.328 279.83 657.824 279.83C657.188 279.83 656.66 279.656 656.242 279.309C655.828 278.961 655.518 278.459 655.311 277.803C655.107 277.143 655.006 276.348 655.006 275.418C655.006 274.504 655.098 273.719 655.281 273.062C655.469 272.402 655.77 271.896 656.184 271.545C656.598 271.189 657.145 271.012 657.824 271.012C658.469 271.012 659 271.188 659.418 271.539C659.836 271.887 660.147 272.391 660.35 273.051C660.553 273.707 660.654 274.496 660.654 275.418ZM655.984 275.418C655.984 276.215 656.045 276.879 656.166 277.41C656.287 277.941 656.482 278.34 656.752 278.605C657.025 278.867 657.383 278.998 657.824 278.998C658.266 278.998 658.621 278.867 658.891 278.605C659.164 278.344 659.361 277.947 659.482 277.416C659.607 276.885 659.67 276.219 659.67 275.418C659.67 274.633 659.609 273.977 659.488 273.449C659.367 272.918 659.172 272.52 658.902 272.254C658.633 271.984 658.273 271.85 657.824 271.85C657.375 271.85 657.016 271.984 656.746 272.254C656.477 272.52 656.281 272.918 656.16 273.449C656.043 273.977 655.984 274.633 655.984 275.418ZM665.482 279.713H664.533V273.643C664.533 273.412 664.533 273.215 664.533 273.051C664.537 272.883 664.541 272.73 664.545 272.594C664.553 272.453 664.563 272.311 664.574 272.166C664.453 272.291 664.34 272.398 664.234 272.488C664.129 272.574 663.998 272.682 663.842 272.811L662.863 273.596L662.354 272.934L664.674 271.146H665.482V279.713ZM674.354 274.797C674.354 275.316 674.316 275.822 674.242 276.314C674.172 276.807 674.049 277.266 673.873 277.691C673.701 278.117 673.467 278.49 673.17 278.811C672.873 279.131 672.5 279.383 672.051 279.566C671.606 279.746 671.072 279.836 670.451 279.836C670.283 279.836 670.092 279.824 669.877 279.801C669.662 279.781 669.486 279.752 669.35 279.713V278.869C669.494 278.92 669.664 278.961 669.859 278.992C670.055 279.02 670.246 279.033 670.434 279.033C671.164 279.033 671.738 278.877 672.156 278.564C672.574 278.248 672.875 277.82 673.059 277.281C673.242 276.738 673.346 276.129 673.369 275.453H673.299C673.182 275.641 673.027 275.814 672.836 275.975C672.648 276.131 672.42 276.258 672.15 276.355C671.881 276.449 671.566 276.496 671.207 276.496C670.711 276.496 670.277 276.395 669.906 276.191C669.539 275.988 669.252 275.693 669.045 275.307C668.842 274.92 668.74 274.453 668.74 273.906C668.74 273.316 668.852 272.807 669.074 272.377C669.301 271.943 669.617 271.609 670.023 271.375C670.43 271.141 670.908 271.023 671.459 271.023C671.881 271.023 672.268 271.104 672.619 271.264C672.971 271.424 673.275 271.664 673.533 271.984C673.795 272.301 673.996 272.693 674.137 273.162C674.281 273.631 674.354 274.176 674.354 274.797ZM671.459 271.85C670.94 271.85 670.518 272.02 670.193 272.359C669.873 272.699 669.713 273.211 669.713 273.895C669.713 274.461 669.852 274.908 670.129 275.236C670.406 275.564 670.834 275.729 671.412 275.729C671.811 275.729 672.154 275.648 672.443 275.488C672.736 275.328 672.961 275.125 673.117 274.879C673.277 274.633 673.357 274.381 673.357 274.123C673.357 273.865 673.318 273.604 673.24 273.338C673.166 273.072 673.051 272.828 672.895 272.605C672.738 272.379 672.541 272.197 672.303 272.061C672.065 271.92 671.783 271.85 671.459 271.85Z" fill="#767676"/>
<path d="M742.126 279.713H736.513V278.898L738.804 276.572C739.23 276.143 739.587 275.76 739.876 275.424C740.169 275.088 740.392 274.758 740.544 274.434C740.697 274.105 740.773 273.746 740.773 273.355C740.773 272.871 740.628 272.502 740.339 272.248C740.054 271.99 739.677 271.861 739.208 271.861C738.798 271.861 738.435 271.932 738.119 272.072C737.802 272.213 737.478 272.412 737.146 272.67L736.625 272.014C736.851 271.822 737.097 271.652 737.363 271.504C737.632 271.355 737.919 271.238 738.224 271.152C738.533 271.066 738.861 271.023 739.208 271.023C739.736 271.023 740.191 271.115 740.574 271.299C740.957 271.482 741.251 271.744 741.458 272.084C741.669 272.424 741.775 272.828 741.775 273.297C741.775 273.75 741.685 274.172 741.505 274.562C741.326 274.949 741.074 275.334 740.75 275.717C740.425 276.096 740.046 276.498 739.613 276.924L737.75 278.781V278.822H742.126V279.713ZM749.041 275.418C749.041 276.113 748.988 276.734 748.882 277.281C748.777 277.828 748.611 278.291 748.384 278.67C748.158 279.049 747.865 279.338 747.505 279.537C747.146 279.732 746.714 279.83 746.21 279.83C745.574 279.83 745.046 279.656 744.628 279.309C744.214 278.961 743.904 278.459 743.697 277.803C743.494 277.143 743.392 276.348 743.392 275.418C743.392 274.504 743.484 273.719 743.667 273.062C743.855 272.402 744.156 271.896 744.57 271.545C744.984 271.189 745.531 271.012 746.21 271.012C746.855 271.012 747.386 271.188 747.804 271.539C748.222 271.887 748.533 272.391 748.736 273.051C748.939 273.707 749.041 274.496 749.041 275.418ZM744.371 275.418C744.371 276.215 744.431 276.879 744.552 277.41C744.673 277.941 744.869 278.34 745.138 278.605C745.412 278.867 745.769 278.998 746.21 278.998C746.652 278.998 747.007 278.867 747.277 278.605C747.55 278.344 747.748 277.947 747.869 277.416C747.994 276.885 748.056 276.219 748.056 275.418C748.056 274.633 747.996 273.977 747.875 273.449C747.753 272.918 747.558 272.52 747.289 272.254C747.019 271.984 746.66 271.85 746.21 271.85C745.761 271.85 745.402 271.984 745.132 272.254C744.863 272.52 744.667 272.918 744.546 273.449C744.429 273.977 744.371 274.633 744.371 275.418ZM755.861 279.713H750.248V278.898L752.539 276.572C752.964 276.143 753.322 275.76 753.611 275.424C753.904 275.088 754.126 274.758 754.279 274.434C754.431 274.105 754.507 273.746 754.507 273.355C754.507 272.871 754.363 272.502 754.074 272.248C753.789 271.99 753.412 271.861 752.943 271.861C752.533 271.861 752.169 271.932 751.853 272.072C751.537 272.213 751.212 272.412 750.88 272.67L750.359 272.014C750.585 271.822 750.832 271.652 751.097 271.504C751.367 271.355 751.654 271.238 751.958 271.152C752.267 271.066 752.595 271.023 752.943 271.023C753.47 271.023 753.925 271.115 754.308 271.299C754.691 271.482 754.986 271.744 755.193 272.084C755.404 272.424 755.509 272.828 755.509 273.297C755.509 273.75 755.419 274.172 755.24 274.562C755.06 274.949 754.808 275.334 754.484 275.717C754.16 276.096 753.781 276.498 753.347 276.924L751.484 278.781V278.822H755.861V279.713ZM762.775 275.418C762.775 276.113 762.722 276.734 762.617 277.281C762.511 277.828 762.345 278.291 762.119 278.67C761.892 279.049 761.599 279.338 761.24 279.537C760.88 279.732 760.449 279.83 759.945 279.83C759.308 279.83 758.781 279.656 758.363 279.309C757.949 278.961 757.638 278.459 757.431 277.803C757.228 277.143 757.126 276.348 757.126 275.418C757.126 274.504 757.218 273.719 757.402 273.062C757.589 272.402 757.89 271.896 758.304 271.545C758.718 271.189 759.265 271.012 759.945 271.012C760.589 271.012 761.121 271.188 761.539 271.539C761.957 271.887 762.267 272.391 762.47 273.051C762.673 273.707 762.775 274.496 762.775 275.418ZM758.105 275.418C758.105 276.215 758.166 276.879 758.287 277.41C758.408 277.941 758.603 278.34 758.873 278.605C759.146 278.867 759.503 278.998 759.945 278.998C760.386 278.998 760.742 278.867 761.011 278.605C761.285 278.344 761.482 277.947 761.603 277.416C761.728 276.885 761.791 276.219 761.791 275.418C761.791 274.633 761.73 273.977 761.609 273.449C761.488 272.918 761.292 272.52 761.023 272.254C760.753 271.984 760.394 271.85 759.945 271.85C759.496 271.85 759.136 271.984 758.867 272.254C758.597 272.52 758.402 272.918 758.281 273.449C758.164 273.977 758.105 274.633 758.105 275.418Z" fill="#767676"/>
<path d="M830.513 279.713H824.899V278.898L827.19 276.572C827.616 276.143 827.974 275.76 828.263 275.424C828.556 275.088 828.778 274.758 828.931 274.434C829.083 274.105 829.159 273.746 829.159 273.355C829.159 272.871 829.015 272.502 828.726 272.248C828.44 271.99 828.064 271.861 827.595 271.861C827.185 271.861 826.821 271.932 826.505 272.072C826.189 272.213 825.864 272.412 825.532 272.67L825.011 272.014C825.237 271.822 825.483 271.652 825.749 271.504C826.019 271.355 826.306 271.238 826.61 271.152C826.919 271.066 827.247 271.023 827.595 271.023C828.122 271.023 828.577 271.115 828.96 271.299C829.343 271.482 829.638 271.744 829.845 272.084C830.056 272.424 830.161 272.828 830.161 273.297C830.161 273.75 830.071 274.172 829.892 274.562C829.712 274.949 829.46 275.334 829.136 275.717C828.812 276.096 828.433 276.498 827.999 276.924L826.136 278.781V278.822H830.513V279.713ZM837.427 275.418C837.427 276.113 837.374 276.734 837.269 277.281C837.163 277.828 836.997 278.291 836.771 278.67C836.544 279.049 836.251 279.338 835.892 279.537C835.532 279.732 835.101 279.83 834.597 279.83C833.96 279.83 833.433 279.656 833.015 279.309C832.601 278.961 832.29 278.459 832.083 277.803C831.88 277.143 831.778 276.348 831.778 275.418C831.778 274.504 831.87 273.719 832.054 273.062C832.241 272.402 832.542 271.896 832.956 271.545C833.37 271.189 833.917 271.012 834.597 271.012C835.241 271.012 835.773 271.188 836.19 271.539C836.608 271.887 836.919 272.391 837.122 273.051C837.325 273.707 837.427 274.496 837.427 275.418ZM832.757 275.418C832.757 276.215 832.817 276.879 832.939 277.41C833.06 277.941 833.255 278.34 833.524 278.605C833.798 278.867 834.155 278.998 834.597 278.998C835.038 278.998 835.394 278.867 835.663 278.605C835.937 278.344 836.134 277.947 836.255 277.416C836.38 276.885 836.442 276.219 836.442 275.418C836.442 274.633 836.382 273.977 836.261 273.449C836.14 272.918 835.944 272.52 835.675 272.254C835.405 271.984 835.046 271.85 834.597 271.85C834.148 271.85 833.788 271.984 833.519 272.254C833.249 272.52 833.054 272.918 832.933 273.449C832.815 273.977 832.757 274.633 832.757 275.418ZM844.247 279.713H838.634V278.898L840.925 276.572C841.351 276.143 841.708 275.76 841.997 275.424C842.29 275.088 842.513 274.758 842.665 274.434C842.817 274.105 842.894 273.746 842.894 273.355C842.894 272.871 842.749 272.502 842.46 272.248C842.175 271.99 841.798 271.861 841.329 271.861C840.919 271.861 840.556 271.932 840.239 272.072C839.923 272.213 839.599 272.412 839.267 272.67L838.745 272.014C838.972 271.822 839.218 271.652 839.483 271.504C839.753 271.355 840.04 271.238 840.345 271.152C840.653 271.066 840.982 271.023 841.329 271.023C841.857 271.023 842.312 271.115 842.694 271.299C843.077 271.482 843.372 271.744 843.579 272.084C843.79 272.424 843.896 272.828 843.896 273.297C843.896 273.75 843.806 274.172 843.626 274.562C843.446 274.949 843.194 275.334 842.87 275.717C842.546 276.096 842.167 276.498 841.733 276.924L839.87 278.781V278.822H844.247V279.713ZM849.122 279.713H848.173V273.643C848.173 273.412 848.173 273.215 848.173 273.051C848.177 272.883 848.181 272.73 848.185 272.594C848.192 272.453 848.202 272.311 848.214 272.166C848.093 272.291 847.98 272.398 847.874 272.488C847.769 272.574 847.638 272.682 847.482 272.811L846.503 273.596L845.993 272.934L848.314 271.146H849.122V279.713Z" fill="#767676"/>
<path d="M42.5671 36.0214V256.447" stroke="#767676"/>
<path d="M27.3194 250.62C27.3194 251.315 27.2667 251.937 27.1612 252.483C27.0557 253.03 26.8897 253.493 26.6631 253.872C26.4366 254.251 26.1436 254.54 25.7842 254.739C25.4249 254.935 24.9932 255.032 24.4893 255.032C23.8526 255.032 23.3252 254.858 22.9073 254.511C22.4932 254.163 22.1827 253.661 21.9756 253.005C21.7725 252.345 21.6709 251.55 21.6709 250.62C21.6709 249.706 21.7627 248.921 21.9463 248.265C22.1338 247.604 22.4346 247.099 22.8487 246.747C23.2627 246.392 23.8096 246.214 24.4893 246.214C25.1338 246.214 25.6651 246.39 26.0831 246.741C26.501 247.089 26.8116 247.593 27.0147 248.253C27.2178 248.909 27.3194 249.698 27.3194 250.62ZM22.6495 250.62C22.6495 251.417 22.71 252.081 22.8311 252.612C22.9522 253.144 23.1475 253.542 23.417 253.808C23.6905 254.069 24.0479 254.2 24.4893 254.2C24.9307 254.2 25.2862 254.069 25.5557 253.808C25.8292 253.546 26.0264 253.149 26.1475 252.618C26.2725 252.087 26.335 251.421 26.335 250.62C26.335 249.835 26.2745 249.179 26.1534 248.651C26.0323 248.12 25.837 247.722 25.5674 247.456C25.2979 247.187 24.9385 247.052 24.4893 247.052C24.0401 247.052 23.6807 247.187 23.4112 247.456C23.1417 247.722 22.9463 248.12 22.8252 248.651C22.7081 249.179 22.6495 249.835 22.6495 250.62Z" fill="#767676"/>
<path d="M11.5461 204.809H10.5968V198.738C10.5968 198.508 10.5968 198.311 10.5968 198.146C10.6007 197.979 10.6046 197.826 10.6086 197.689C10.6164 197.549 10.6261 197.406 10.6379 197.262C10.5168 197.387 10.4035 197.494 10.298 197.584C10.1925 197.67 10.0617 197.777 9.90543 197.906L8.92691 198.691L8.41715 198.029L10.7375 196.242H11.5461V204.809ZM20.4523 200.514C20.4523 201.209 20.3996 201.83 20.2941 202.377C20.1886 202.924 20.0226 203.387 19.7961 203.766C19.5695 204.145 19.2765 204.434 18.9171 204.633C18.5578 204.828 18.1261 204.926 17.6222 204.926C16.9855 204.926 16.4582 204.752 16.0402 204.404C15.6261 204.057 15.3156 203.555 15.1086 202.898C14.9054 202.238 14.8039 201.443 14.8039 200.514C14.8039 199.6 14.8957 198.814 15.0793 198.158C15.2668 197.498 15.5675 196.992 15.9816 196.641C16.3957 196.285 16.9425 196.107 17.6222 196.107C18.2668 196.107 18.798 196.283 19.216 196.635C19.6339 196.982 19.9445 197.486 20.1476 198.146C20.3507 198.803 20.4523 199.592 20.4523 200.514ZM15.7824 200.514C15.7824 201.311 15.8429 201.975 15.964 202.506C16.0851 203.037 16.2804 203.436 16.55 203.701C16.8234 203.963 17.1808 204.094 17.6222 204.094C18.0636 204.094 18.4191 203.963 18.6886 203.701C18.9621 203.439 19.1593 203.043 19.2804 202.512C19.4054 201.98 19.4679 201.314 19.4679 200.514C19.4679 199.729 19.4074 199.072 19.2863 198.545C19.1652 198.014 18.9699 197.615 18.7004 197.35C18.4308 197.08 18.0714 196.945 17.6222 196.945C17.173 196.945 16.8136 197.08 16.5441 197.35C16.2746 197.615 16.0793 198.014 15.9582 198.545C15.841 199.072 15.7824 199.729 15.7824 200.514ZM27.3195 200.514C27.3195 201.209 27.2668 201.83 27.1613 202.377C27.0558 202.924 26.8898 203.387 26.6632 203.766C26.4367 204.145 26.1437 204.434 25.7843 204.633C25.425 204.828 24.9933 204.926 24.4894 204.926C23.8527 204.926 23.3254 204.752 22.9074 204.404C22.4933 204.057 22.1828 203.555 21.9757 202.898C21.7726 202.238 21.6711 201.443 21.6711 200.514C21.6711 199.6 21.7629 198.814 21.9464 198.158C22.1339 197.498 22.4347 196.992 22.8488 196.641C23.2629 196.285 23.8097 196.107 24.4894 196.107C25.1339 196.107 25.6652 196.283 26.0832 196.635C26.5011 196.982 26.8117 197.486 27.0148 198.146C27.2179 198.803 27.3195 199.592 27.3195 200.514ZM22.6496 200.514C22.6496 201.311 22.7101 201.975 22.8312 202.506C22.9523 203.037 23.1476 203.436 23.4171 203.701C23.6906 203.963 24.048 204.094 24.4894 204.094C24.9308 204.094 25.2863 203.963 25.5558 203.701C25.8293 203.439 26.0265 203.043 26.1476 202.512C26.2726 201.98 26.3351 201.314 26.3351 200.514C26.3351 199.729 26.2746 199.072 26.1535 198.545C26.0324 198.014 25.8371 197.615 25.5675 197.35C25.298 197.08 24.9386 196.945 24.4894 196.945C24.0402 196.945 23.6808 197.08 23.4113 197.35C23.1418 197.615 22.9464 198.014 22.8254 198.545C22.7082 199.072 22.6496 199.729 22.6496 200.514Z" fill="#767676"/>
<path d="M11.5461 149.702H10.5968V143.632C10.5968 143.401 10.5968 143.204 10.5968 143.04C10.6007 142.872 10.6046 142.72 10.6086 142.583C10.6164 142.443 10.6261 142.3 10.6379 142.155C10.5168 142.28 10.4035 142.388 10.298 142.478C10.1925 142.564 10.0617 142.671 9.90543 142.8L8.92691 143.585L8.41715 142.923L10.7375 141.136H11.5461V149.702ZM17.4992 144.464C18.0812 144.464 18.5871 144.564 19.0168 144.763C19.4464 144.958 19.7785 145.243 20.0129 145.618C20.2511 145.993 20.3703 146.448 20.3703 146.984C20.3703 147.569 20.2433 148.075 19.9894 148.501C19.7355 148.923 19.3703 149.249 18.8937 149.48C18.4171 149.706 17.8468 149.819 17.1828 149.819C16.7375 149.819 16.3234 149.78 15.9406 149.702C15.5578 149.624 15.2355 149.507 14.9738 149.351V148.425C15.2589 148.597 15.6046 148.734 16.0109 148.835C16.4171 148.937 16.8117 148.987 17.1945 148.987C17.6281 148.987 18.007 148.919 18.3312 148.782C18.6593 148.642 18.9132 148.431 19.0929 148.15C19.2765 147.864 19.3683 147.507 19.3683 147.077C19.3683 146.507 19.1925 146.068 18.841 145.759C18.4933 145.446 17.9425 145.29 17.1886 145.29C16.9464 145.29 16.6808 145.31 16.3918 145.349C16.1027 145.388 15.8644 145.431 15.6769 145.478L15.1847 145.155L15.5129 141.136H19.7726V142.026H16.3449L16.1281 144.61C16.2765 144.579 16.4679 144.548 16.7023 144.517C16.9367 144.482 17.2023 144.464 17.4992 144.464ZM27.3195 145.407C27.3195 146.103 27.2668 146.724 27.1613 147.271C27.0558 147.818 26.8898 148.28 26.6632 148.659C26.4367 149.038 26.1437 149.327 25.7843 149.526C25.425 149.722 24.9933 149.819 24.4894 149.819C23.8527 149.819 23.3254 149.646 22.9074 149.298C22.4933 148.95 22.1828 148.448 21.9757 147.792C21.7726 147.132 21.6711 146.337 21.6711 145.407C21.6711 144.493 21.7629 143.708 21.9464 143.052C22.1339 142.392 22.4347 141.886 22.8488 141.534C23.2629 141.179 23.8097 141.001 24.4894 141.001C25.1339 141.001 25.6652 141.177 26.0832 141.528C26.5011 141.876 26.8117 142.38 27.0148 143.04C27.2179 143.696 27.3195 144.485 27.3195 145.407ZM22.6496 145.407C22.6496 146.204 22.7101 146.868 22.8312 147.4C22.9523 147.931 23.1476 148.329 23.4171 148.595C23.6906 148.857 24.048 148.987 24.4894 148.987C24.9308 148.987 25.2863 148.857 25.5558 148.595C25.8293 148.333 26.0265 147.937 26.1476 147.405C26.2726 146.874 26.3351 146.208 26.3351 145.407C26.3351 144.622 26.2746 143.966 26.1535 143.439C26.0324 142.907 25.8371 142.509 25.5675 142.243C25.298 141.974 24.9386 141.839 24.4894 141.839C24.0402 141.839 23.6808 141.974 23.4113 142.243C23.1418 142.509 22.9464 142.907 22.8254 143.439C22.7082 143.966 22.6496 144.622 22.6496 145.407Z" fill="#767676"/>
<path d="M13.5382 94.5958H7.92496V93.7814L10.216 91.4552C10.6418 91.0255 10.9992 90.6427 11.2882 90.3068C11.5812 89.9708 11.8039 89.6407 11.9562 89.3165C12.1086 88.9884 12.1847 88.629 12.1847 88.2384C12.1847 87.754 12.0402 87.3849 11.7511 87.131C11.466 86.8732 11.089 86.7443 10.6203 86.7443C10.2101 86.7443 9.84684 86.8146 9.53043 86.9552C9.21402 87.0958 8.8898 87.295 8.55777 87.5529L8.03629 86.8966C8.26285 86.7052 8.50895 86.5353 8.77457 86.3868C9.0441 86.2384 9.33121 86.1212 9.6359 86.0353C9.94449 85.9493 10.2726 85.9064 10.6203 85.9064C11.1476 85.9064 11.6027 85.9982 11.9855 86.1818C12.3683 86.3654 12.6632 86.6271 12.8703 86.9669C13.0812 87.3068 13.1867 87.7111 13.1867 88.1798C13.1867 88.6329 13.0968 89.0548 12.9171 89.4454C12.7375 89.8322 12.4855 90.2169 12.1613 90.5997C11.8371 90.9786 11.4582 91.381 11.0246 91.8068L9.16129 93.6642V93.7052H13.5382V94.5958ZM20.4523 90.3009C20.4523 90.9962 20.3996 91.6173 20.2941 92.1642C20.1886 92.7111 20.0226 93.174 19.7961 93.5529C19.5695 93.9318 19.2765 94.2208 18.9171 94.42C18.5578 94.6154 18.1261 94.713 17.6222 94.713C16.9855 94.713 16.4582 94.5392 16.0402 94.1915C15.6261 93.8439 15.3156 93.3419 15.1086 92.6857C14.9054 92.0255 14.8039 91.2306 14.8039 90.3009C14.8039 89.3868 14.8957 88.6017 15.0793 87.9454C15.2668 87.2853 15.5675 86.7794 15.9816 86.4279C16.3957 86.0724 16.9425 85.8947 17.6222 85.8947C18.2668 85.8947 18.798 86.0704 19.216 86.422C19.6339 86.7697 19.9445 87.2736 20.1476 87.9337C20.3507 88.59 20.4523 89.379 20.4523 90.3009ZM15.7824 90.3009C15.7824 91.0978 15.8429 91.7618 15.964 92.2931C16.0851 92.8243 16.2804 93.2228 16.55 93.4884C16.8234 93.7501 17.1808 93.881 17.6222 93.881C18.0636 93.881 18.4191 93.7501 18.6886 93.4884C18.9621 93.2267 19.1593 92.8302 19.2804 92.299C19.4054 91.7677 19.4679 91.1017 19.4679 90.3009C19.4679 89.5157 19.4074 88.8595 19.2863 88.3322C19.1652 87.8009 18.9699 87.4025 18.7004 87.1368C18.4308 86.8673 18.0714 86.7325 17.6222 86.7325C17.173 86.7325 16.8136 86.8673 16.5441 87.1368C16.2746 87.4025 16.0793 87.8009 15.9582 88.3322C15.841 88.8595 15.7824 89.5157 15.7824 90.3009ZM27.3195 90.3009C27.3195 90.9962 27.2668 91.6173 27.1613 92.1642C27.0558 92.7111 26.8898 93.174 26.6632 93.5529C26.4367 93.9318 26.1437 94.2208 25.7843 94.42C25.425 94.6154 24.9933 94.713 24.4894 94.713C23.8527 94.713 23.3254 94.5392 22.9074 94.1915C22.4933 93.8439 22.1828 93.3419 21.9757 92.6857C21.7726 92.0255 21.6711 91.2306 21.6711 90.3009C21.6711 89.3868 21.7629 88.6017 21.9464 87.9454C22.1339 87.2853 22.4347 86.7794 22.8488 86.4279C23.2629 86.0724 23.8097 85.8947 24.4894 85.8947C25.1339 85.8947 25.6652 86.0704 26.0832 86.422C26.5011 86.7697 26.8117 87.2736 27.0148 87.9337C27.2179 88.59 27.3195 89.379 27.3195 90.3009ZM22.6496 90.3009C22.6496 91.0978 22.7101 91.7618 22.8312 92.2931C22.9523 92.8243 23.1476 93.2228 23.4171 93.4884C23.6906 93.7501 24.048 93.881 24.4894 93.881C24.9308 93.881 25.2863 93.7501 25.5558 93.4884C25.8293 93.2267 26.0265 92.8302 26.1476 92.299C26.2726 91.7677 26.3351 91.1017 26.3351 90.3009C26.3351 89.5157 26.2746 88.8595 26.1535 88.3322C26.0324 87.8009 25.8371 87.4025 25.5675 87.1368C25.298 86.8673 24.9386 86.7325 24.4894 86.7325C24.0402 86.7325 23.6808 86.8673 23.4113 87.1368C23.1418 87.4025 22.9464 87.8009 22.8254 88.3322C22.7082 88.8595 22.6496 89.5157 22.6496 90.3009Z" fill="#767676"/>
<path d="M13.5382 40.0001H7.92496V39.1857L10.216 36.8595C10.6418 36.4298 10.9992 36.047 11.2882 35.7111C11.5812 35.3751 11.8039 35.045 11.9562 34.7208C12.1086 34.3927 12.1847 34.0333 12.1847 33.6427C12.1847 33.1583 12.0402 32.7892 11.7511 32.5353C11.466 32.2775 11.089 32.1486 10.6203 32.1486C10.2101 32.1486 9.84684 32.2189 9.53043 32.3595C9.21402 32.5001 8.8898 32.6993 8.55777 32.9572L8.03629 32.3009C8.26285 32.1095 8.50895 31.9396 8.77457 31.7911C9.0441 31.6427 9.33121 31.5255 9.6359 31.4396C9.94449 31.3536 10.2726 31.3107 10.6203 31.3107C11.1476 31.3107 11.6027 31.4025 11.9855 31.5861C12.3683 31.7697 12.6632 32.0314 12.8703 32.3712C13.0812 32.7111 13.1867 33.1154 13.1867 33.5841C13.1867 34.0372 13.0968 34.4591 12.9171 34.8497C12.7375 35.2365 12.4855 35.6212 12.1613 36.004C11.8371 36.3829 11.4582 36.7853 11.0246 37.2111L9.16129 39.0685V39.1095H13.5382V40.0001ZM17.4992 34.7618C18.0812 34.7618 18.5871 34.8615 19.0168 35.0607C19.4464 35.256 19.7785 35.5411 20.0129 35.9161C20.2511 36.2911 20.3703 36.7462 20.3703 37.2814C20.3703 37.8673 20.2433 38.3732 19.9894 38.799C19.7355 39.2208 19.3703 39.547 18.8937 39.7775C18.4171 40.004 17.8468 40.1173 17.1828 40.1173C16.7375 40.1173 16.3234 40.0782 15.9406 40.0001C15.5578 39.922 15.2355 39.8048 14.9738 39.6486V38.7228C15.2589 38.8947 15.6046 39.0314 16.0109 39.1329C16.4171 39.2345 16.8117 39.2853 17.1945 39.2853C17.6281 39.2853 18.007 39.2169 18.3312 39.0802C18.6593 38.9396 18.9132 38.7286 19.0929 38.4474C19.2765 38.1622 19.3683 37.8048 19.3683 37.3751C19.3683 36.8048 19.1925 36.3654 18.841 36.0568C18.4933 35.7443 17.9425 35.588 17.1886 35.588C16.9464 35.588 16.6808 35.6075 16.3918 35.6466C16.1027 35.6857 15.8644 35.7286 15.6769 35.7755L15.1847 35.4532L15.5129 31.4337H19.7726V32.3243H16.3449L16.1281 34.9083C16.2765 34.8771 16.4679 34.8458 16.7023 34.8146C16.9367 34.7794 17.2023 34.7618 17.4992 34.7618ZM27.3195 35.7052C27.3195 36.4005 27.2668 37.0216 27.1613 37.5685C27.0558 38.1154 26.8898 38.5782 26.6632 38.9572C26.4367 39.3361 26.1437 39.6251 25.7843 39.8243C25.425 40.0197 24.9933 40.1173 24.4894 40.1173C23.8527 40.1173 23.3254 39.9435 22.9074 39.5958C22.4933 39.2482 22.1828 38.7462 21.9757 38.09C21.7726 37.4298 21.6711 36.6349 21.6711 35.7052C21.6711 34.7911 21.7629 34.006 21.9464 33.3497C22.1339 32.6896 22.4347 32.1837 22.8488 31.8322C23.2629 31.4767 23.8097 31.299 24.4894 31.299C25.1339 31.299 25.6652 31.4747 26.0832 31.8263C26.5011 32.174 26.8117 32.6779 27.0148 33.338C27.2179 33.9943 27.3195 34.7833 27.3195 35.7052ZM22.6496 35.7052C22.6496 36.5021 22.7101 37.1661 22.8312 37.6974C22.9523 38.2286 23.1476 38.6271 23.4171 38.8927C23.6906 39.1544 24.048 39.2853 24.4894 39.2853C24.9308 39.2853 25.2863 39.1544 25.5558 38.8927C25.8293 38.631 26.0265 38.2345 26.1476 37.7032C26.2726 37.172 26.3351 36.506 26.3351 35.7052C26.3351 34.92 26.2746 34.2638 26.1535 33.7365C26.0324 33.2052 25.8371 32.8068 25.5675 32.5411C25.298 32.2716 24.9386 32.1368 24.4894 32.1368C24.0402 32.1368 23.6808 32.2716 23.4113 32.5411C23.1418 32.8068 22.9464 33.2052 22.8254 33.7365C22.7082 34.2638 22.6496 34.92 22.6496 35.7052Z" fill="#767676"/>
<path d="M42.5671 256.447H838.042" stroke="#E6E6E6"/>
<path d="M42.5671 201.341H838.042" stroke="#E6E6E6"/>
<path d="M42.5671 146.234H838.042" stroke="#E6E6E6"/>
<path d="M42.5671 91.1278H838.042" stroke="#E6E6E6"/>
<path d="M42.5671 36.0214H838.042" stroke="#E6E6E6"/>
<path d="M42.5671 36.0214V256.447" stroke="#E6E6E6"/>
<path d="M130.953 36.0214V256.447" stroke="#E6E6E6"/>
<path d="M219.339 36.0214V256.447" stroke="#E6E6E6"/>
<path d="M307.726 36.0214V256.447" stroke="#E6E6E6"/>
<path d="M396.111 36.0214V256.447" stroke="#E6E6E6"/>
<path d="M484.498 36.0214V256.447" stroke="#E6E6E6"/>
<path d="M572.884 36.0214V256.447" stroke="#E6E6E6"/>
<path d="M661.27 36.0214V256.447" stroke="#E6E6E6"/>
<path d="M749.656 36.0214V256.447" stroke="#E6E6E6"/>
<path d="M838.042 36.0214V256.447" stroke="#E6E6E6"/>
<path d="M42.5671 249.393L130.953 191.642L219.339 157.035L307.725 70.8487L396.111 225.367L484.498 131.025L572.884 170.701L661.27 244.544L749.656 249.173L838.042 142.487V256.447H749.656H661.27H572.884H484.498H396.111H307.725H219.339H130.953H42.5671V249.393Z" fill="#0656B4" fill-opacity="0.6"/>
<path d="M42.5764 253.26C44.7856 253.26 46.5764 251.47 46.5764 249.26C46.5764 247.051 44.7856 245.26 42.5764 245.26C40.3673 245.26 38.5764 247.051 38.5764 249.26C38.5764 251.47 40.3673 253.26 42.5764 253.26Z" fill="#0656B4" fill-opacity="0.6"/>
<path d="M130.962 195.509C133.172 195.509 134.962 193.718 134.962 191.509C134.962 189.3 133.172 187.509 130.962 187.509C128.753 187.509 126.962 189.3 126.962 191.509C126.962 193.718 128.753 195.509 130.962 195.509Z" fill="#0656B4" fill-opacity="0.6"/>
<path d="M219.349 160.902C221.558 160.902 223.349 159.111 223.349 156.902C223.349 154.693 221.558 152.902 219.349 152.902C217.139 152.902 215.349 154.693 215.349 156.902C215.349 159.111 217.139 160.902 219.349 160.902Z" fill="#0656B4" fill-opacity="0.6"/>
<path d="M307.735 74.7157C309.944 74.7157 311.735 72.9248 311.735 70.7157C311.735 68.5066 309.944 66.7157 307.735 66.7157C305.526 66.7157 303.735 68.5066 303.735 70.7157C303.735 72.9248 305.526 74.7157 307.735 74.7157Z" fill="#0656B4" fill-opacity="0.6"/>
<path d="M396.121 229.234C398.33 229.234 400.121 227.443 400.121 225.234C400.121 223.025 398.33 221.234 396.121 221.234C393.911 221.234 392.121 223.025 392.121 225.234C392.121 227.443 393.911 229.234 396.121 229.234Z" fill="#0656B4" fill-opacity="0.6"/>
<path d="M484.507 134.892C486.716 134.892 488.507 133.101 488.507 130.892C488.507 128.683 486.716 126.892 484.507 126.892C482.298 126.892 480.507 128.683 480.507 130.892C480.507 133.101 482.298 134.892 484.507 134.892Z" fill="#0656B4" fill-opacity="0.6"/>
<path d="M572.893 174.568C575.102 174.568 576.893 172.778 576.893 170.568C576.893 168.359 575.102 166.568 572.893 166.568C570.684 166.568 568.893 168.359 568.893 170.568C568.893 172.778 570.684 174.568 572.893 174.568Z" fill="#0656B4" fill-opacity="0.6"/>
<path d="M661.279 248.411C663.488 248.411 665.279 246.62 665.279 244.411C665.279 242.202 663.488 240.411 661.279 240.411C659.07 240.411 657.279 242.202 657.279 244.411C657.279 246.62 659.07 248.411 661.279 248.411Z" fill="#0656B4" fill-opacity="0.6"/>
<path d="M749.665 253.04C751.874 253.04 753.665 251.249 753.665 249.04C753.665 246.831 751.874 245.04 749.665 245.04C747.456 245.04 745.665 246.831 745.665 249.04C745.665 251.249 747.456 253.04 749.665 253.04Z" fill="#0656B4" fill-opacity="0.6"/>
<path d="M838.051 146.354C840.26 146.354 842.051 144.563 842.051 142.354C842.051 140.145 840.26 138.354 838.051 138.354C835.842 138.354 834.051 140.145 834.051 142.354C834.051 144.563 835.842 146.354 838.051 146.354Z" fill="#0656B4" fill-opacity="0.6"/>
<path d="M42.5671 189.658L130.953 94.6546L219.339 198.475L307.725 69.967L396.111 133.89L484.498 163.207L572.884 83.6334L661.27 133.89L749.656 254.243L838.042 91.3483V256.447H749.656H661.27H572.884H484.498H396.111H307.725H219.339H130.953H42.5671V189.658Z" fill="#ABC8EA" fill-opacity="0.6"/>
<path d="M42.5764 193.525C44.7856 193.525 46.5764 191.734 46.5764 189.525C46.5764 187.316 44.7856 185.525 42.5764 185.525C40.3673 185.525 38.5764 187.316 38.5764 189.525C38.5764 191.734 40.3673 193.525 42.5764 193.525Z" fill="#ABC8EA" fill-opacity="0.6"/>
<path d="M130.962 98.5217C133.172 98.5217 134.962 96.7308 134.962 94.5217C134.962 92.3125 133.172 90.5217 130.962 90.5217C128.753 90.5217 126.962 92.3125 126.962 94.5217C126.962 96.7308 128.753 98.5217 130.962 98.5217Z" fill="#ABC8EA" fill-opacity="0.6"/>
<path d="M219.349 202.342C221.558 202.342 223.349 200.551 223.349 198.342C223.349 196.133 221.558 194.342 219.349 194.342C217.139 194.342 215.349 196.133 215.349 198.342C215.349 200.551 217.139 202.342 219.349 202.342Z" fill="#ABC8EA" fill-opacity="0.6"/>
<path d="M307.735 73.834C309.944 73.834 311.735 72.0431 311.735 69.834C311.735 67.6248 309.944 65.834 307.735 65.834C305.526 65.834 303.735 67.6248 303.735 69.834C303.735 72.0431 305.526 73.834 307.735 73.834Z" fill="#ABC8EA" fill-opacity="0.6"/>
<path d="M396.121 137.757C398.33 137.757 400.121 135.967 400.121 133.757C400.121 131.548 398.33 129.757 396.121 129.757C393.911 129.757 392.121 131.548 392.121 133.757C392.121 135.967 393.911 137.757 396.121 137.757Z" fill="#ABC8EA" fill-opacity="0.6"/>
<path d="M484.507 167.074C486.716 167.074 488.507 165.283 488.507 163.074C488.507 160.865 486.716 159.074 484.507 159.074C482.298 159.074 480.507 160.865 480.507 163.074C480.507 165.283 482.298 167.074 484.507 167.074Z" fill="#ABC8EA" fill-opacity="0.6"/>
<path d="M575 93.0001C579.418 93.0001 583 89.4184 583 85.0001C583 80.5818 579.418 77.0001 575 77.0001C570.582 77.0001 567 80.5818 567 85.0001C567 89.4184 570.582 93.0001 575 93.0001Z" fill="#ABC8EA"/>
<path d="M661.279 137.757C663.488 137.757 665.279 135.967 665.279 133.757C665.279 131.548 663.488 129.757 661.279 129.757C659.07 129.757 657.279 131.548 657.279 133.757C657.279 135.967 659.07 137.757 661.279 137.757Z" fill="#ABC8EA" fill-opacity="0.6"/>
<path d="M749.665 258.11C751.874 258.11 753.665 256.319 753.665 254.11C753.665 251.901 751.874 250.11 749.665 250.11C747.456 250.11 745.665 251.901 745.665 254.11C745.665 256.319 747.456 258.11 749.665 258.11Z" fill="#ABC8EA" fill-opacity="0.6"/>
<path d="M838.051 95.2153C840.26 95.2153 842.051 93.4244 842.051 91.2153C842.051 89.0061 840.26 87.2153 838.051 87.2153C835.842 87.2153 834.051 89.0061 834.051 91.2153C834.051 93.4244 835.842 95.2153 838.051 95.2153Z" fill="#ABC8EA" fill-opacity="0.6"/>
<g filter="url(#filter0_d_590_774)">
<rect x="447" y="1" width="260" height="72" rx="16" fill="white"/>
<path d="M464.172 42V33.4336H470.553V42H469.568V34.3125H465.168V42H464.172ZM475.785 35.4609C476.586 35.4609 477.225 35.7363 477.701 36.2871C478.178 36.8379 478.416 37.666 478.416 38.7715C478.416 39.502 478.307 40.1152 478.088 40.6113C477.869 41.1074 477.561 41.4824 477.162 41.7363C476.768 41.9902 476.301 42.1172 475.762 42.1172C475.422 42.1172 475.123 42.0723 474.865 41.9824C474.607 41.8926 474.387 41.7715 474.203 41.6191C474.02 41.4668 473.867 41.3008 473.746 41.1211H473.676C473.688 41.2734 473.701 41.457 473.717 41.6719C473.736 41.8867 473.746 42.0742 473.746 42.2344V44.8711H472.768V35.5781H473.57L473.699 36.5273H473.746C473.871 36.332 474.023 36.1543 474.203 35.9941C474.383 35.8301 474.602 35.7012 474.859 35.6074C475.121 35.5098 475.43 35.4609 475.785 35.4609ZM475.615 36.2812C475.17 36.2812 474.811 36.3672 474.537 36.5391C474.268 36.7109 474.07 36.9688 473.945 37.3125C473.82 37.6523 473.754 38.0801 473.746 38.5957V38.7832C473.746 39.3262 473.805 39.7852 473.922 40.1602C474.043 40.5352 474.24 40.8203 474.514 41.0156C474.791 41.2109 475.162 41.3086 475.627 41.3086C476.025 41.3086 476.357 41.2012 476.623 40.9863C476.889 40.7715 477.086 40.4727 477.215 40.0898C477.348 39.7031 477.414 39.2598 477.414 38.7598C477.414 38.002 477.266 37.4004 476.969 36.9551C476.676 36.5059 476.225 36.2812 475.615 36.2812ZM485.652 38.7773C485.652 39.3047 485.584 39.7754 485.447 40.1895C485.311 40.6035 485.113 40.9531 484.855 41.2383C484.598 41.5234 484.285 41.7422 483.918 41.8945C483.555 42.043 483.143 42.1172 482.682 42.1172C482.252 42.1172 481.857 42.043 481.498 41.8945C481.143 41.7422 480.834 41.5234 480.572 41.2383C480.314 40.9531 480.113 40.6035 479.969 40.1895C479.828 39.7754 479.758 39.3047 479.758 38.7773C479.758 38.0742 479.877 37.4766 480.115 36.9844C480.354 36.4883 480.693 36.1113 481.135 35.8535C481.58 35.5918 482.109 35.4609 482.723 35.4609C483.309 35.4609 483.82 35.5918 484.258 35.8535C484.699 36.1152 485.041 36.4941 485.283 36.9902C485.529 37.4824 485.652 38.0781 485.652 38.7773ZM480.766 38.7773C480.766 39.293 480.834 39.7402 480.971 40.1191C481.107 40.498 481.318 40.791 481.604 40.998C481.889 41.2051 482.256 41.3086 482.705 41.3086C483.15 41.3086 483.516 41.2051 483.801 40.998C484.09 40.791 484.303 40.498 484.439 40.1191C484.576 39.7402 484.645 39.293 484.645 38.7773C484.645 38.2656 484.576 37.8242 484.439 37.4531C484.303 37.0781 484.092 36.7891 483.807 36.5859C483.521 36.3828 483.152 36.2812 482.699 36.2812C482.031 36.2812 481.541 36.502 481.229 36.9434C480.92 37.3848 480.766 37.9961 480.766 38.7773ZM488.863 38.7129L486.643 35.5781H487.756L489.449 38.0508L491.137 35.5781H492.238L490.018 38.7129L492.361 42H491.248L489.449 39.3809L487.639 42H486.537L488.863 38.7129ZM499.152 38.7773C499.152 39.3047 499.084 39.7754 498.947 40.1895C498.811 40.6035 498.613 40.9531 498.355 41.2383C498.098 41.5234 497.785 41.7422 497.418 41.8945C497.055 42.043 496.643 42.1172 496.182 42.1172C495.752 42.1172 495.357 42.043 494.998 41.8945C494.643 41.7422 494.334 41.5234 494.072 41.2383C493.814 40.9531 493.613 40.6035 493.469 40.1895C493.328 39.7754 493.258 39.3047 493.258 38.7773C493.258 38.0742 493.377 37.4766 493.615 36.9844C493.854 36.4883 494.193 36.1113 494.635 35.8535C495.08 35.5918 495.609 35.4609 496.223 35.4609C496.809 35.4609 497.32 35.5918 497.758 35.8535C498.199 36.1152 498.541 36.4941 498.783 36.9902C499.029 37.4824 499.152 38.0781 499.152 38.7773ZM494.266 38.7773C494.266 39.293 494.334 39.7402 494.471 40.1191C494.607 40.498 494.818 40.791 495.104 40.998C495.389 41.2051 495.756 41.3086 496.205 41.3086C496.65 41.3086 497.016 41.2051 497.301 40.998C497.59 40.791 497.803 40.498 497.939 40.1191C498.076 39.7402 498.145 39.293 498.145 38.7773C498.145 38.2656 498.076 37.8242 497.939 37.4531C497.803 37.0781 497.592 36.7891 497.307 36.5859C497.021 36.3828 496.652 36.2812 496.199 36.2812C495.531 36.2812 495.041 36.502 494.729 36.9434C494.42 37.3848 494.266 37.9961 494.266 38.7773ZM505.539 35.5781V41.1738H506.459V44.2207H505.516V42H500.969V44.2207H500.037V41.1738H500.541C500.908 40.666 501.213 40.1094 501.455 39.5039C501.697 38.8984 501.881 38.2637 502.006 37.5996C502.131 36.9316 502.197 36.2578 502.205 35.5781H505.539ZM504.596 36.3516H503.072C503.037 36.9219 502.953 37.502 502.82 38.0918C502.691 38.6816 502.52 39.2441 502.305 39.7793C502.09 40.3105 501.84 40.7754 501.555 41.1738H504.596V36.3516ZM508.715 35.5781V38.2734H512.295V35.5781H513.268V42H512.295V39.0996H508.715V42H507.736V35.5781H508.715ZM520.867 38.7773C520.867 39.3047 520.799 39.7754 520.662 40.1895C520.525 40.6035 520.328 40.9531 520.07 41.2383C519.812 41.5234 519.5 41.7422 519.133 41.8945C518.77 42.043 518.357 42.1172 517.896 42.1172C517.467 42.1172 517.072 42.043 516.713 41.8945C516.357 41.7422 516.049 41.5234 515.787 41.2383C515.529 40.9531 515.328 40.6035 515.184 40.1895C515.043 39.7754 514.973 39.3047 514.973 38.7773C514.973 38.0742 515.092 37.4766 515.33 36.9844C515.568 36.4883 515.908 36.1113 516.35 35.8535C516.795 35.5918 517.324 35.4609 517.938 35.4609C518.523 35.4609 519.035 35.5918 519.473 35.8535C519.914 36.1152 520.256 36.4941 520.498 36.9902C520.744 37.4824 520.867 38.0781 520.867 38.7773ZM515.98 38.7773C515.98 39.293 516.049 39.7402 516.186 40.1191C516.322 40.498 516.533 40.791 516.818 40.998C517.104 41.2051 517.471 41.3086 517.92 41.3086C518.365 41.3086 518.73 41.2051 519.016 40.998C519.305 40.791 519.518 40.498 519.654 40.1191C519.791 39.7402 519.859 39.293 519.859 38.7773C519.859 38.2656 519.791 37.8242 519.654 37.4531C519.518 37.0781 519.307 36.7891 519.021 36.5859C518.736 36.3828 518.367 36.2812 517.914 36.2812C517.246 36.2812 516.756 36.502 516.443 36.9434C516.135 37.3848 515.98 37.9961 515.98 38.7773ZM523.475 35.5781V39.6152C523.475 39.6934 523.473 39.7949 523.469 39.9199C523.465 40.041 523.459 40.1719 523.451 40.3125C523.443 40.4492 523.436 40.582 523.428 40.7109C523.424 40.8359 523.418 40.9395 523.41 41.0215L526.914 35.5781H528.109V42H527.201V38.0625C527.201 37.9375 527.203 37.7773 527.207 37.582C527.211 37.3867 527.217 37.1953 527.225 37.0078C527.232 36.8164 527.238 36.668 527.242 36.5625L523.75 42H522.549V35.5781H523.475ZM527.629 32.9355C527.594 33.3301 527.494 33.6602 527.33 33.9258C527.17 34.1914 526.934 34.3926 526.621 34.5293C526.309 34.6621 525.908 34.7285 525.42 34.7285C524.916 34.7285 524.51 34.6641 524.201 34.5352C523.896 34.4023 523.67 34.2031 523.521 33.9375C523.377 33.6719 523.291 33.3379 523.264 32.9355H524.178C524.221 33.3652 524.336 33.6582 524.523 33.8145C524.711 33.9707 525.016 34.0488 525.438 34.0488C525.812 34.0488 526.107 33.9668 526.322 33.8027C526.537 33.6387 526.666 33.3496 526.709 32.9355H527.629ZM532.961 38.1445C532.961 37.2305 533.049 36.4512 533.225 35.8066C533.4 35.1582 533.672 34.6387 534.039 34.248C534.41 33.8535 534.887 33.584 535.469 33.4395C535.969 33.3027 536.477 33.1855 536.992 33.0879C537.508 32.9863 538.01 32.8984 538.498 32.8242L538.668 33.6797C538.422 33.7148 538.164 33.7559 537.895 33.8027C537.625 33.8457 537.355 33.8926 537.086 33.9434C536.816 33.9902 536.562 34.041 536.324 34.0957C536.086 34.1465 535.875 34.1992 535.691 34.2539C535.359 34.3438 535.072 34.5 534.83 34.7227C534.592 34.9453 534.402 35.252 534.262 35.6426C534.125 36.0332 534.043 36.5254 534.016 37.1191H534.086C534.203 36.9473 534.363 36.7773 534.566 36.6094C534.77 36.4414 535.012 36.3027 535.293 36.1934C535.574 36.0801 535.891 36.0234 536.242 36.0234C536.797 36.0234 537.26 36.1445 537.631 36.3867C538.002 36.625 538.281 36.9609 538.469 37.3945C538.656 37.8281 538.75 38.3359 538.75 38.918C538.75 39.6172 538.629 40.2051 538.387 40.6816C538.148 41.1582 537.812 41.5176 537.379 41.7598C536.945 41.998 536.436 42.1172 535.85 42.1172C535.396 42.1172 534.99 42.0293 534.631 41.8535C534.275 41.6777 533.973 41.4199 533.723 41.0801C533.477 40.7402 533.287 40.3242 533.154 39.832C533.025 39.3398 532.961 38.7773 532.961 38.1445ZM535.926 41.3086C536.297 41.3086 536.615 41.2305 536.881 41.0742C537.15 40.918 537.357 40.6719 537.502 40.3359C537.65 39.9961 537.725 39.5547 537.725 39.0117C537.725 38.332 537.594 37.8008 537.332 37.418C537.074 37.0312 536.66 36.8379 536.09 36.8379C535.734 36.8379 535.412 36.9141 535.123 37.0664C534.834 37.2148 534.59 37.3926 534.391 37.5996C534.191 37.8066 534.047 37.9922 533.957 38.1562C533.957 38.5547 533.986 38.9414 534.045 39.3164C534.104 39.6914 534.205 40.0293 534.35 40.3301C534.494 40.6309 534.693 40.8691 534.947 41.0449C535.205 41.2207 535.531 41.3086 535.926 41.3086ZM542.834 35.4727C543.6 35.4727 544.168 35.6445 544.539 35.9883C544.91 36.332 545.096 36.8809 545.096 37.6348V42H544.387L544.199 41.0508H544.152C543.973 41.2852 543.785 41.4824 543.59 41.6426C543.395 41.7988 543.168 41.918 542.91 42C542.656 42.0781 542.344 42.1172 541.973 42.1172C541.582 42.1172 541.234 42.0488 540.93 41.9121C540.629 41.7754 540.391 41.5684 540.215 41.291C540.043 41.0137 539.957 40.6621 539.957 40.2363C539.957 39.5957 540.211 39.1035 540.719 38.7598C541.227 38.416 542 38.2285 543.039 38.1973L544.146 38.1504V37.7578C544.146 37.2031 544.027 36.8145 543.789 36.5918C543.551 36.3691 543.215 36.2578 542.781 36.2578C542.445 36.2578 542.125 36.3066 541.82 36.4043C541.516 36.502 541.227 36.6172 540.953 36.75L540.654 36.0117C540.943 35.8633 541.275 35.7363 541.65 35.6309C542.025 35.5254 542.42 35.4727 542.834 35.4727ZM544.135 38.8359L543.156 38.877C542.355 38.9082 541.791 39.0391 541.463 39.2695C541.135 39.5 540.971 39.8262 540.971 40.248C540.971 40.6152 541.082 40.8867 541.305 41.0625C541.527 41.2383 541.822 41.3262 542.189 41.3262C542.76 41.3262 543.227 41.168 543.59 40.8516C543.953 40.5352 544.135 40.0605 544.135 39.4277V38.8359ZM551.916 42H550.926V36.3926H548.975C548.896 37.4043 548.797 38.2715 548.676 38.9941C548.559 39.7129 548.41 40.3008 548.23 40.7578C548.055 41.2109 547.84 41.5449 547.586 41.7598C547.336 41.9707 547.037 42.0762 546.689 42.0762C546.584 42.0762 546.484 42.0703 546.391 42.0586C546.297 42.0469 546.217 42.0273 546.15 42V41.2617C546.201 41.2773 546.254 41.2891 546.309 41.2969C546.367 41.3047 546.428 41.3086 546.49 41.3086C546.666 41.3086 546.826 41.2363 546.971 41.0918C547.119 40.9434 547.252 40.7207 547.369 40.4238C547.49 40.127 547.598 39.752 547.691 39.2988C547.785 38.8418 547.867 38.3047 547.938 37.6875C548.012 37.0664 548.076 36.3633 548.131 35.5781H551.916V42ZM558.783 42H557.793V36.3926H555.842C555.764 37.4043 555.664 38.2715 555.543 38.9941C555.426 39.7129 555.277 40.3008 555.098 40.7578C554.922 41.2109 554.707 41.5449 554.453 41.7598C554.203 41.9707 553.904 42.0762 553.557 42.0762C553.451 42.0762 553.352 42.0703 553.258 42.0586C553.164 42.0469 553.084 42.0273 553.018 42V41.2617C553.068 41.2773 553.121 41.2891 553.176 41.2969C553.234 41.3047 553.295 41.3086 553.357 41.3086C553.533 41.3086 553.693 41.2363 553.838 41.0918C553.986 40.9434 554.119 40.7207 554.236 40.4238C554.357 40.127 554.465 39.752 554.559 39.2988C554.652 38.8418 554.734 38.3047 554.805 37.6875C554.879 37.0664 554.943 36.3633 554.998 35.5781H558.783V42ZM564.93 35.5781V38.2734H568.51V35.5781H569.482V42H568.51V39.0996H564.93V42H563.951V35.5781H564.93ZM573.947 35.4727C574.713 35.4727 575.281 35.6445 575.652 35.9883C576.023 36.332 576.209 36.8809 576.209 37.6348V42H575.5L575.312 41.0508H575.266C575.086 41.2852 574.898 41.4824 574.703 41.6426C574.508 41.7988 574.281 41.918 574.023 42C573.77 42.0781 573.457 42.1172 573.086 42.1172C572.695 42.1172 572.348 42.0488 572.043 41.9121C571.742 41.7754 571.504 41.5684 571.328 41.291C571.156 41.0137 571.07 40.6621 571.07 40.2363C571.07 39.5957 571.324 39.1035 571.832 38.7598C572.34 38.416 573.113 38.2285 574.152 38.1973L575.26 38.1504V37.7578C575.26 37.2031 575.141 36.8145 574.902 36.5918C574.664 36.3691 574.328 36.2578 573.895 36.2578C573.559 36.2578 573.238 36.3066 572.934 36.4043C572.629 36.502 572.34 36.6172 572.066 36.75L571.768 36.0117C572.057 35.8633 572.389 35.7363 572.764 35.6309C573.139 35.5254 573.533 35.4727 573.947 35.4727ZM575.248 38.8359L574.27 38.877C573.469 38.9082 572.904 39.0391 572.576 39.2695C572.248 39.5 572.084 39.8262 572.084 40.248C572.084 40.6152 572.195 40.8867 572.418 41.0625C572.641 41.2383 572.936 41.3262 573.303 41.3262C573.873 41.3262 574.34 41.168 574.703 40.8516C575.066 40.5352 575.248 40.0605 575.248 39.4277V38.8359ZM580.996 38.1445C580.996 37.2305 581.084 36.4512 581.26 35.8066C581.436 35.1582 581.707 34.6387 582.074 34.248C582.445 33.8535 582.922 33.584 583.504 33.4395C584.004 33.3027 584.512 33.1855 585.027 33.0879C585.543 32.9863 586.045 32.8984 586.533 32.8242L586.703 33.6797C586.457 33.7148 586.199 33.7559 585.93 33.8027C585.66 33.8457 585.391 33.8926 585.121 33.9434C584.852 33.9902 584.598 34.041 584.359 34.0957C584.121 34.1465 583.91 34.1992 583.727 34.2539C583.395 34.3438 583.107 34.5 582.865 34.7227C582.627 34.9453 582.438 35.252 582.297 35.6426C582.16 36.0332 582.078 36.5254 582.051 37.1191H582.121C582.238 36.9473 582.398 36.7773 582.602 36.6094C582.805 36.4414 583.047 36.3027 583.328 36.1934C583.609 36.0801 583.926 36.0234 584.277 36.0234C584.832 36.0234 585.295 36.1445 585.666 36.3867C586.037 36.625 586.316 36.9609 586.504 37.3945C586.691 37.8281 586.785 38.3359 586.785 38.918C586.785 39.6172 586.664 40.2051 586.422 40.6816C586.184 41.1582 585.848 41.5176 585.414 41.7598C584.98 41.998 584.471 42.1172 583.885 42.1172C583.432 42.1172 583.025 42.0293 582.666 41.8535C582.311 41.6777 582.008 41.4199 581.758 41.0801C581.512 40.7402 581.322 40.3242 581.189 39.832C581.061 39.3398 580.996 38.7773 580.996 38.1445ZM583.961 41.3086C584.332 41.3086 584.65 41.2305 584.916 41.0742C585.186 40.918 585.393 40.6719 585.537 40.3359C585.686 39.9961 585.76 39.5547 585.76 39.0117C585.76 38.332 585.629 37.8008 585.367 37.418C585.109 37.0312 584.695 36.8379 584.125 36.8379C583.77 36.8379 583.447 36.9141 583.158 37.0664C582.869 37.2148 582.625 37.3926 582.426 37.5996C582.227 37.8066 582.082 37.9922 581.992 38.1562C581.992 38.5547 582.021 38.9414 582.08 39.3164C582.139 39.6914 582.24 40.0293 582.385 40.3301C582.529 40.6309 582.729 40.8691 582.982 41.0449C583.24 41.2207 583.566 41.3086 583.961 41.3086ZM596.723 38.7773C596.723 39.4766 596.609 40.0762 596.383 40.5762C596.16 41.0762 595.84 41.459 595.422 41.7246C595.004 41.9863 594.504 42.1172 593.922 42.1172C593.379 42.1172 592.904 42 592.498 41.7656C592.096 41.5312 591.777 41.1895 591.543 40.7402C591.312 40.291 591.18 39.7441 591.145 39.0996H589.439V42H588.467V35.5781H589.439V38.2734H591.156C591.211 37.6797 591.355 37.1738 591.59 36.7559C591.824 36.3379 592.141 36.0176 592.539 35.7949C592.938 35.5723 593.406 35.4609 593.945 35.4609C594.508 35.4609 594.996 35.5938 595.41 35.8594C595.828 36.1211 596.15 36.5 596.377 36.9961C596.607 37.4883 596.723 38.082 596.723 38.7773ZM592.141 38.7773C592.141 39.3164 592.201 39.7754 592.322 40.1543C592.447 40.5293 592.641 40.8164 592.902 41.0156C593.168 41.2109 593.512 41.3086 593.934 41.3086C594.352 41.3086 594.691 41.2109 594.953 41.0156C595.219 40.8203 595.412 40.5352 595.533 40.1602C595.658 39.7812 595.721 39.3203 595.721 38.7773C595.721 38.2422 595.658 37.7891 595.533 37.418C595.408 37.0469 595.215 36.7656 594.953 36.5742C594.691 36.3789 594.352 36.2812 593.934 36.2812C593.516 36.2812 593.174 36.3789 592.908 36.5742C592.646 36.7656 592.453 37.0469 592.328 37.418C592.203 37.7891 592.141 38.2422 592.141 38.7773ZM603.121 35.5781V41.1738H604.041V44.2207H603.098V42H598.551V44.2207H597.619V41.1738H598.123C598.49 40.666 598.795 40.1094 599.037 39.5039C599.279 38.8984 599.463 38.2637 599.588 37.5996C599.713 36.9316 599.779 36.2578 599.787 35.5781H603.121ZM602.178 36.3516H600.654C600.619 36.9219 600.535 37.502 600.402 38.0918C600.273 38.6816 600.102 39.2441 599.887 39.7793C599.672 40.3105 599.422 40.7754 599.137 41.1738H602.178V36.3516ZM612.842 35.5781L610.17 38.7012L613.07 42H611.957L609.145 38.7422V42H608.236V38.7422L605.43 42H604.316L607.217 38.7012L604.539 35.5781H605.611L608.236 38.6953V35.5781H609.145V38.6953L611.781 35.5781H612.842ZM616.615 35.4609C617.162 35.4609 617.631 35.582 618.021 35.8242C618.412 36.0664 618.711 36.4062 618.918 36.8438C619.125 37.2773 619.229 37.7852 619.229 38.3672V38.9707H614.793C614.805 39.7246 614.992 40.2988 615.355 40.6934C615.719 41.0879 616.23 41.2852 616.891 41.2852C617.297 41.2852 617.656 41.248 617.969 41.1738C618.281 41.0996 618.605 40.9902 618.941 40.8457V41.7012C618.617 41.8457 618.295 41.9512 617.975 42.0176C617.658 42.084 617.283 42.1172 616.85 42.1172C616.232 42.1172 615.693 41.9922 615.232 41.7422C614.775 41.4883 614.42 41.1172 614.166 40.6289C613.912 40.1406 613.785 39.543 613.785 38.8359C613.785 38.1445 613.9 37.5469 614.131 37.043C614.365 36.5352 614.693 36.1445 615.115 35.8711C615.541 35.5977 616.041 35.4609 616.615 35.4609ZM616.604 36.2578C616.084 36.2578 615.67 36.4277 615.361 36.7676C615.053 37.1074 614.869 37.582 614.811 38.1914H618.209C618.205 37.8086 618.145 37.4727 618.027 37.1836C617.914 36.8906 617.74 36.6641 617.506 36.5039C617.271 36.3398 616.971 36.2578 616.604 36.2578ZM625.258 36.4043H623.143V42H622.182V36.4043H620.096V35.5781H625.258V36.4043ZM626.383 41.3906C626.383 41.1172 626.449 40.9238 626.582 40.8105C626.715 40.6934 626.877 40.6348 627.068 40.6348C627.268 40.6348 627.436 40.6934 627.572 40.8105C627.709 40.9238 627.777 41.1172 627.777 41.3906C627.777 41.6602 627.709 41.8574 627.572 41.9824C627.436 42.1035 627.268 42.1641 627.068 42.1641C626.877 42.1641 626.715 42.1035 626.582 41.9824C626.449 41.8574 626.383 41.6602 626.383 41.3906ZM626.383 36.1934C626.383 35.9121 626.449 35.7148 626.582 35.6016C626.715 35.4844 626.877 35.4258 627.068 35.4258C627.268 35.4258 627.436 35.4844 627.572 35.6016C627.709 35.7148 627.777 35.9121 627.777 36.1934C627.777 36.459 627.709 36.6523 627.572 36.7734C627.436 36.8945 627.268 36.9551 627.068 36.9551C626.877 36.9551 626.715 36.8945 626.582 36.7734C626.449 36.6523 626.383 36.459 626.383 36.1934Z" fill="#222222"/>
<path d="M638.823 49V45.838H643.845V30.989H643.101L638.792 33.903V30.276L643.132 27.3H647.441V45.838H652.06V49H638.823ZM663.765 34.709C665.749 34.709 667.402 35.3807 668.725 36.724C670.068 38.0467 670.74 39.7517 670.74 41.839C670.74 43.9677 670.037 45.7657 668.632 47.233C667.247 48.6797 665.387 49.403 663.052 49.403C660.489 49.403 658.464 48.5453 656.976 46.83C655.488 45.1147 654.744 42.3867 654.744 38.646C654.744 36.352 655.033 34.3473 655.612 32.632C656.211 30.896 657.162 29.501 658.464 28.447C659.766 27.393 661.368 26.866 663.269 26.866C665.129 26.866 666.679 27.3827 667.919 28.416C669.159 29.4287 669.903 30.7307 670.151 32.322H666.586C666.09 30.7307 664.964 29.935 663.207 29.935C661.719 29.935 660.541 30.5033 659.673 31.64C658.805 32.7767 658.319 34.43 658.216 36.6H658.96C660.117 35.3393 661.719 34.709 663.765 34.709ZM659.983 45.156C660.768 45.9207 661.771 46.303 662.99 46.303C664.209 46.303 665.201 45.931 665.966 45.187C666.731 44.4223 667.113 43.3477 667.113 41.963C667.113 40.5783 666.731 39.5243 665.966 38.801C665.201 38.0777 664.199 37.716 662.959 37.716C661.74 37.716 660.737 38.088 659.952 38.832C659.187 39.5553 658.805 40.5887 658.805 41.932C658.805 43.296 659.198 44.3707 659.983 45.156ZM682.377 34.306C684.423 34.306 686.097 34.988 687.399 36.352C688.701 37.716 689.352 39.4623 689.352 41.591C689.352 43.9263 688.629 45.8173 687.182 47.264C685.756 48.69 683.896 49.403 681.602 49.403C679.226 49.403 677.345 48.783 675.96 47.543C674.576 46.2823 673.821 44.6497 673.697 42.645H677.293C677.438 43.8023 677.872 44.6807 678.595 45.28C679.319 45.8793 680.28 46.179 681.478 46.179C682.78 46.179 683.814 45.776 684.578 44.97C685.343 44.164 685.725 43.0687 685.725 41.684C685.725 40.32 685.343 39.235 684.578 38.429C683.814 37.623 682.801 37.22 681.54 37.22C679.825 37.22 678.533 37.8297 677.665 39.049H674.193L675.154 27.3H688.081V30.369H678.006L677.603 35.67H678.347C679.484 34.7607 680.827 34.306 682.377 34.306Z" fill="#0656B4"/>
</g>
<defs>
<filter id="filter0_d_590_774" x="441" y="0" width="272" height="84" filterUnits="userSpaceOnUse" color-interpolation-filters="sRGB">
<feFlood flood-opacity="0" result="BackgroundImageFix"/>
<feColorMatrix in="SourceAlpha" type="matrix" values="0 0 0 0 0 0 0 0 0 0 0 0 0 0 0 0 0 0 127 0" result="hardAlpha"/>
<feOffset dy="5"/>
<feGaussianBlur stdDeviation="3"/>
<feColorMatrix type="matrix" values="0 0 0 0 0.173611 0 0 0 0 0.241667 0 0 0 0 0.416667 0 0 0 0.08 0"/>
<feBlend mode="normal" in2="BackgroundImageFix" result="effect1_dropShadow_590_774"/>
<feBlend mode="normal" in="SourceGraphic" in2="effect1_dropShadow_590_774" result="shape"/>
</filter>
</defs>
</svg>
