<svg width="32" height="32" viewBox="0 0 32 32" fill="none" xmlns="http://www.w3.org/2000/svg">
<circle cx="16" cy="15.9995" r="15.5" stroke="#D8D8D8"/>
<path fill-rule="evenodd" clip-rule="evenodd" d="M16.3337 20.9619C16.3337 20.9619 16.6405 20.9303 16.7977 20.7736C16.9415 20.6301 16.9365 20.3593 16.9365 20.3593C16.9365 20.3593 16.9174 19.0947 17.5501 18.9079C18.1737 18.7243 18.9745 20.1309 19.8242 20.6718C20.4661 21.0807 20.9534 20.9912 20.9534 20.9912L23.2241 20.9619C23.2241 20.9619 24.4114 20.894 23.8485 20.0275C23.802 19.9565 23.5201 19.3863 22.1607 18.215C20.7363 16.989 20.9276 17.1873 22.6421 15.0662C23.6864 13.7746 24.1038 12.986 23.9733 12.6488C23.8494 12.3263 23.0811 12.4119 23.0811 12.4119L20.5251 12.4266C20.5251 12.4266 20.3356 12.4027 20.1951 12.4806C20.0579 12.557 19.9689 12.7352 19.9689 12.7352C19.9689 12.7352 19.5648 13.7344 19.0252 14.5847C17.8869 16.3779 17.4321 16.4728 17.2458 16.3617C16.8126 16.1017 16.9207 15.3185 16.9207 14.7622C16.9207 13.0238 17.2051 12.2993 16.3678 12.1118C16.0901 12.0493 15.8855 12.0084 15.1746 12.0014C14.2625 11.993 13.4909 12.0045 13.0536 12.2028C12.7625 12.3348 12.538 12.6295 12.6752 12.6465C12.844 12.6673 13.2265 12.7422 13.4294 12.9983C13.6913 13.3293 13.6821 14.0716 13.6821 14.0716C13.6821 14.0716 13.8326 16.1179 13.3304 16.3717C12.9862 16.5461 12.5139 16.1904 11.4987 14.5631C10.979 13.7298 10.5866 12.8085 10.5866 12.8085C10.5866 12.8085 10.5109 12.6365 10.3754 12.5439C10.2116 12.432 9.98293 12.3973 9.98293 12.3973L7.55421 12.4119C7.55421 12.4119 7.18919 12.4212 7.05532 12.5686C6.93642 12.699 7.04618 12.9698 7.04618 12.9698C7.04618 12.9698 8.94775 17.0986 11.1013 19.1795C13.076 21.0869 15.3176 20.9619 15.3176 20.9619H16.3337Z" fill="#A7A7A7"/>
</svg>
